<?xml version="1.0" encoding="UTF-8"?>
<svg id="Layer_1" xmlns="http://www.w3.org/2000/svg" version="1.1" viewBox="0 0 163.18 84.26">
  <!-- Generator: Adobe Illustrator 29.5.1, SVG Export Plug-In . SVG Version: 2.1.0 Build 141)  -->
  <defs>
    <style>
      .st0, .st1 {
        fill: #fff;
        stroke: #fff;
        stroke-miterlimit: 10;
      }

      .st1 {
        stroke-width: .25px;
      }
    </style>
  </defs>
  <g>
    <path class="st0" d="M13.82,8.58c.08.05.11.36.4.5.45.22,1.25.19,1.77.37s1.16.8,1.67.96c.47.15,2.67.17,2.77.27v.66c.32.07.64-.14.92-.15.82-.02,2.5-.21,3.24-.02.16.04.14.36.39.46.34.14.97.11,1.4.25.39.13.86.55,1.22.6,1.07.16,1.08.14,2.19.59.86.35.54.19,1.35.32s1.6,1.32,2.62,1.13l.15.75c.76-.29,1.16-.3,1.97-.16l-.16.82.41-.49c.62.72,1.43.8,2.18,1.26.91.55,1.16.93,2.21,1.25.89.27.6.86.82,1.07.09.09.67.13.94.29.29.17.49.61.78.69.38.11.68-.06,1.12.19.61.34.52,1.27.4,1.9-.09.5-.71.38-.66.9.07.1.97.32,1.14.42.27.16.27.53.54.63s.59-.08.78.01c.43.22.07.88,1.32.5.37-.11.75-.55,1.05-.56.34-.02.8.31,1.17.29.63-.02,1.9-.69,2.77-.59.25.03.52.34.82.29.08-.01.18-.36.5-.52,1.01-.53,4.46-.96,5.61-.81.88.11,1.29.53,1.79,1.18.26.34-.12.63.92.47.11.75-.09,1.49-.55,2.08-.11.14-.39.2-.53.37-.59.72-.89,2.15-1.81.68-.45.35-1.48.25-1.88-.09-.23-.2-.19-1.04-.83-1.32-.33-.15-1.92.21-2.15.48-.39.46.15.62.18,1.08-1.61,0-2.25,1.46-3.91,1.19-.08.18-.27.38-.31.57-.2,1.03.24,5.48.44,6.7.04.25.29.44.32.68.11.7-1.25,1.88-1.73,2.36-.19.19-.27.49-.48.67-.6.5-1.79.7-2.48.34-.2-.29.13-.66,0-.99-.13-.37-1.17-2.1-1.21-2.26-.06-.24.16-.6.14-.94-.05-.78-.71-2.26-.8-3.15-.2-1.76-.29-3.53-.51-5.26-.06-.48.4-.84-.24-1.22-1.17,1.33-2.16,3.13-3.3,4.43-.33.38-1.23,1.01-1.71,1.57-.23.26-.32.73-.57.92s-.56-.1-.74.23l.16.73c-.87-.29-1.33,1.05-1.69,1.27-1.61.97-2.95,2.44-4.43,3.66-.24.2-.27.57-.78.51,0,.21.19.35,0,.56-.26.29-1.39.92-1.82,1.31-.18.17-1.26,1.24-1.28,1.33-.04.21.19.53.14.78-.03.16-.4.18-.52.34-.18.25-.12.71-.31.85-.07.05-1.25-.06-1.65.15s-.26.83-.48,1c-.39.23-.85-.2-1.22-.08-.16.05-.7.88-1.1,1.04-.95.39-.95-.19-1.1-.23-.21-.05-.44.06-.66-.05-.28-.13-1.25-1.88-1.32-2.22-.09-.44.28-.62.42-.98.08-.2-.02-.58.06-.68.05-.06.32.02.42-.05.16-.11.13-.56.38-.71.22-.13.58-.06.82-.16.8-.33,1.42-1.46,2.22-2.05s1.54-.33,1.39-1.48l-.5-.09v-1.38c-.57.22-1.39-.77-1.32-1.23.02-.15.42-.13.49-.36.1-.32-.14-1.68-.11-2.07.09-1.15.72-2.94.75-3.98s-.4-2.28-.3-3.62c.07-1,.55-1.91.65-2.64.06-.46-.15-.86-.09-1.23.08-.47.71-.91.34-1.47-.07-.11-.37-.11-.41-.28-.09-.36.07-.94-.03-1.41-.07-.32-.4-.64-.44-.9-.05-.38.33-.55.29-.76-.02-.13-.35-.33-.44-.55-.27-.6-.02-.86-.82-1.15-.23-.08-.54,0-.74-.09-.6-.24-1.26-.76-2.05-.91-1.17-.22-1.09.39-1.61.46-.66.09-1.76-.41-2.31-.49-.98-.14-3.4-.06-4.01-.59-.17-.14-.17-.37-.16-.57-1.48.48-1.07-.21-1.35-1.03-.09-.26-.38-.4-.49-.66-.38-.88-.76-1.83.28-2.42.64.28,2.44-.53,2.84-.29l.03.03ZM34.55,17.74c-.86-.99-1.72.64-2.38.59-.71-.06-1.23-1.07-1.32-1.07-.03,0-.25.3-.5.33-.33.04-.58-.17-.8-.17-.09,0-1.15,1.08-.82,1.49l-.59.16c.55.55.32.94.4,1.4.03.19.33.3.39.52.23.78.39,2.58.2,3.39-.04.18-.43.17-.49.38-.07.25.31,1.01-.02,1.45.01.19.49,0,.61.33.04.1.09,1.34.06,1.48-.07.36-.43.47-.49.83-.09.51.19.92.16,1.3-.02.29-.27.5-.3.69-.01.13.88,1.87.95,2.45.09.71-.46,1.16-.32,1.87.85.13.74-.98,1.32-1.39.24-.17.75-.22.79-.28.1-.12-.05-.57.19-.72.16-.1.46-.02.62-.11.26-.16,2.42-2.3,2.62-2.63.1-.16,0-.45.07-.58.05-.08.51-.17.72-.35.5-.46,1.53-2.12,2.12-2.48.26-.16.63-.11.72-.18.06-.05.17-.75.36-1,.31-.43,1.2-.94,1.55-1.28.27-.26.72-1.31.51-1.63-.09-.15-.76-.48-.99-.66-.18-.14-.24-.47-.42-.57-.75-.46-2.16.14-2.71-.91l-.07-.08c.31-.1.71-.93.24-.9-.23.02-.26,1.14-1.15.33-.2-.18-.27-.55-.52-.63-.32-.11-.84,0-1.25-.06-1.69-.3-.67-1.4.54-1.28v-.03ZM51.97,25.3c.24-.11,1.73-.14,1.64-.57-.11-.53-1.93-.21-1.64.57ZM58.87,24.48c-.2.01-.35-.14-.29.21.09.56.31,1.05.48,1.57l1.13.03c.3-1.08-1.42-.81-1.32-1.81Z"/>
    <path class="st0" d="M124.42,0v.48c1.15-.2,1.23.54,1.81,1.25.15.18.41.24.56.43.99,1.31.34,2.56.59,3.84.06.3.71,1.22.79,1.68.03.17-.31.46-.31.94.03,1.68.84,3.48,1.12,4.98.12.64-.14,2.26.24,2.64.15.15.58.1.63.31.14.57,0,1.63.19,2.4.11.42.35,1.17.49,1.64s.64.55.34,1.23c-.12.28-.52.08-.38.53.85-.2,1.02.86,1.34,1.51.63,1.28,1.38,2.78,2.08,4.03.96,1.72,2.08,2.57,1.48,4.69-.16.56-.71.71-.85.94-.09.15.19.56-.2.63-1.18.1-2.67.45-3.6-.45l-1.14-1.66c-.21-.21-2.02-.25-2.19-.13-.26.17-.5,1.65-.96,1.76-.28.07-1.56-.67-2.41-.48-.21.05-.22.93-.85,1-.38.04-.82-.27-1.19-.29-.55-.03-.94.33-1.57-.04-.1-.06-.09-.3-.23-.32-1.21-.25-1.4.16-2.46-1.05s-1.32-2.5-1.95-3.56c-.15-.26-1.02-.35-1.21-1.27-.1-.47.14-.75.15-1.12,0-.18-.69-.43-.26-1.38.13-.28.56-.39.74-.62.49-.61.28-1.48,1.27-1.8.32-.1.93-.02,1.15-.25.19-.19.12-.62.24-.84s.31-.22.4-.33c.1-.14.07-.42.22-.52.2-.14.83-.1,1.2-.28.46-.22.73-.77,1.4-.92s1.67.23,2.4-.02c.61.19.09,3.15,1.84,3.11.6-.01.42-1.29.38-1.7-.21-2.25-1.31-4.85-1.4-6.95-.13-3.41-.37-6.68-.76-10.1-.11-.91-.33-.96-.58-1.57-.55-1.34.29-1.91,1.44-2.35V0ZM126.87,19.56c-.95-.59-.18,1.12-.14,1.38.11.74-.12,1.5-.17,2.23l1.13-1.08c-.36-.38-.7-2.45-.82-2.52h0ZM123.11,23.99l-.37.2-.12,1.11c-.84.2-.39-.75-.98-.66-.04.96-1.36,1.17-2.07,1.47-.03.76.31,1.2-.23,1.9,1.19-.29.94.73,1.19,1.03.04.04.9.57.96.6.51.24,1.21.2,1.72.59.31,0,.66-.65,1.22-.76.4-.08.77.12.99.03.05-.02.88-.7.91-.75.52-.83-.65-1.33-.87-1.76-.14-.28-.07-.71-.29-1.02-.03-.05-.83-.72-.88-.75-.2-.08-.47.15-.64.06-.13-.07-.66-1.04-.52-1.29h-.02ZM128.19,23.99c-.63-.51-.37,1.81.25,1.8.62-.73.16-1.22-.25-1.8ZM116.26,24.75c-.09-.07,0-.3-.13-.27l-.57.74c.47.34,1.5,1.04,1.46.02-.08-.25-.53-.32-.75-.49h-.01ZM129.18,25.96c-.77.05-.92.53-.83,1.23l.49.1c0,.56-.07,1.27.67,1.3l.17-1.89-.49-.09-.02-.65h.01ZM130.34,29.25c-.13-1.2-.95-.59-.32.24l-.35.18.17,1.38h.82l.19.96.63.02-.35-1.13-.63-.02.65-1.56c-.25-.4-.46-.12-.82-.08h.01ZM119.02,32.18l-.27-.47c-.26-.15-.31.23-.25.41.04.11,1.05.76,1.32.57v-.66s-.8.15-.8.15Z"/>
    <path class="st0" d="M77.66,20.31c.07.1.25.18.38.36.32.44,0,.82.85.71l.56,1.58c.39.08.82.19,1.15.41.69.45,1.68,1.22,2.26,1.85.12.13.1.44.2.53.22.2.87,0,.58.92-.06.2-.31.3-.37.45-.36.85-.72,1.6-1.58,2.2-.63.43-2.49,1.19-2.46-.06-.7.08-1.54.05-1.98.73-.18.29-.1.68-.41.9-.36.26-.79.09-1.11.17-.12.03-.28.9-.44-.04-.1-.58-.63.23-.67.27-.24.18-.66.12-.65.6l-.33-.08c-.09-.24.24-1.33-.24-1.23l-.43.27c-.12.56.68.81.01,1.37.4-.04.86.06,1.24,0,.29-.04.21-.28.36-.33.65-.21,1.19.21,1.44-.51l1.06.66c.42-1.79,2.58-.2,3.84-.47l.27.64c.3.08.4-.25.61-.3.57-.16.71.45,1,.62.74.44.79.4,1.49.92.67.5,1.17.97,2.05.59l.27.96c.23.03.56-.06.74.17.05.06.54,1.37.55,1.44.11.8-1.22,1.67-1.94,1.78-1.08,1.59-2.33-1.62-3.13-1.98-.45-.2-.97.02-1.37-.11-.29-.1-.42-.74-.7-.78-.42-.07-1.08,1.06-1.8-.67-.72.57-1.51.22-2.3.32-.19.02-1.04.21-1.24.26-.35.09-.56.56-.88.57s-1.02-.57-1.56-.32c-.05,1.87-1.46.68-2.38.81-.35.05-.47.43-.83.5-.1.02-1.89,0-2.11,0-.2,0-2.4-.65-2.56-.74-.51-.31-.83-.92-1.22-1.34-.07-.07-.32-.02-.39-.08-.06-.06-.65-1.49-.67-1.57-.2-.8.7-4.44,1.45-4.87.14-.08.33.14.66-.17.66-.6.32-1.16.35-1.22.15-.24,1.2-.51,1.37-.68.35-.32.66-1.42.89-1.74.22-.3.66-.38,1-.97.53-.92.25-1.95,1.31-.32l.49-.09c.24-.7-1.03-1.02-1.09-1.39-.01-.06.08-1.19.1-1.29.03-.12.29-.1.32-.22.14-.62-.14-1.07.33-1.78.15-.22,1.34-1.19,1.57-1.23.94-.18,3.39.83,4.44.98.71.57,1.12,1.38,1.62,2.08l.03-.05ZM75.58,23.38c-.37-.31-1.21-.19-1.59.04-.33.2-.68,1.26-1.07,1.24-.62-.03-1.36-.7-1.07-1.33h-.99c-.18,1,.24.76.64,1.08.62.49-.02,1.32.35,1.94-1.98.54-1.39,1.67.52,1.21.97-.23,2.16-.72,3.17-.94.37-.08.92.11,1.23-.09.18-.11.21-.45.33-.63s.5-.05.29-.66c-.18-.52-.78-.55-1.13-.85-.32-.27-.48-.85-.69-1.03v.02ZM71.03,32.2c.64.17,1.19.16,1.64-.41l-.65-.57.16.66c-.14.1-1.04-.21-1.15.33h0ZM83.02,35.65c-.04-.4.37-1.36-.39-1.13-.57.17-.64,1.44.39,1.13Z"/>
    <path class="st0" d="M97.48,19.63l.38-.22c.5.54,1.7.12,2.09.38.18.12.31,1.04.89,1.41,1.67,1.07,1.77.91,3.21,2.54s2.29,2.69,3.88,4.17c1.03.95,2.25,1.97,3.24,2.92.54.53,1.5.91,1.55,1.81.01.18-.7,1.5-.88,1.68-.59.58-1.59.72-2.38.6-1.51-.24-.7-.65-1.13-1.18-.15-.19-.92-.34-1.32-.65-.47-.37-.55-1-1.16-.89-.05.71-1.73,2.01-2.39,2.13-1.21.22-2.71-.37-3.77-.16-.45.09-.38.51-.68.63-.71.27-3.41.53-4.2.48-.44-.02-.8-.29-1.19-.46l-.49.6c-.64-.29-1.22.07-1.82.08-.43,0-.76-.16-1.15-.18-.29-.02-.61.27-.9.09s-.4-.87-.59-1.07c-.26-.29-.57-.15-.89-.91.89-.41.77-.76,0-1.23l-.41.66c-.84-.64-.27-1.63-.07-2.44l.8-.02c-.39-1.37.06-1.06.61-1.7.08-.1.01-.37.06-.41.12-.11.54.07.77-.06.15-.08.57-1.05.76-1.29.22-.27.73-.49.83-.66.11-.2.03-.52.12-.62.25-.28.98-.63,1.35-1.35.27-.53-.14-.97.84-1.13,1.3-.21,1.31.71,1.63.64.65-.32.43-1.1-.16-1.09-.16,0-.28.38-.57.27-.2-.19,1.08-1.83.99-.49,1.06-1.17,1.06.17,1.56.17.17,0,.58-.34.58-.42v-2.63h.01ZM96.78,24.28c.06-.09.17-1.26-.13-1.28-.34.38-.6,1.29-.81,1.57-.15.2-.47.2-.63.52-.21.42-.23,1.35-.36,1.85.36.1.54-.49.66-.74.22-.45.35-1.1.65-1.48.19-.24.59-.38.62-.44h0ZM98.95,24.81c-.67.03-1.39.54-1.87,1-.95.92-1.54,1.86-2.26,2.99-.26.4-.88.76-.76,1.3.26,1.23,1.02.54,1.39.5.46-.05,1.34-.13,1.81-.16.96-.05,4.12.49,4.28-.98.14-1.28-.85-1.66-1.5-2.54-.37-.5-1.04-1.55-1.08-2.13v.02ZM102.57,25.8c-.4-.07-1.31.15-1.15.74.03.13.35.37.49.17l.65-.91h.01ZM109.11,32.83c.21-.32-.38-1.35-.7-1.28-.91.72-.13.93.16,1.64l.54-.35h0ZM90.85,33.54c-.69.19-.23,1.04.13.96.48-.1.62-1.17-.13-.96Z"/>
    <path class="st0" d="M52.12,25.84c.12-.04.23-.06.36-.08l-.17.02c.25-.03.5-.03.75-.03.3,0,.59-.02.88-.08.15-.03.3-.16.37-.29.08-.13.11-.33.06-.48-.11-.34-.42-.5-.77-.44-.05.01-.11.02-.16.03l.17-.02c-.61.08-1.23-.02-1.82.16-.31.09-.54.44-.44.77s.43.54.77.44h0Z"/>
    <path class="st0" d="M53.45,24.41h-.88c-.16,0-.33.07-.44.18-.06.06-.1.12-.13.2-.04.07-.06.15-.05.24,0,.16.06.33.18.44s.27.18.44.18h.88c.16,0,.33-.07.44-.18.06-.06.1-.12.13-.2.04-.07.06-.15.05-.24,0-.16-.06-.33-.18-.44s-.27-.18-.44-.18h0Z"/>
    <path class="st0" d="M57.87,24.73c0,.24-.03.49-.03.73s.08.47.25.65c.1.11.23.18.36.24.11.05.21.11.32.16.14.07.29.16.45.19.23.05.49.02.68-.12.16-.11.29-.25.38-.42.08-.16.12-.32.1-.51-.02-.17-.09-.32-.21-.44-.1-.11-.23-.18-.37-.23-.1-.03-.22-.04-.33-.05-.15-.02-.34.08-.44.18-.11.11-.19.29-.18.44s.06.33.18.44l.13.1c.1.06.2.08.32.09h.07l-.17-.02s.06.01.09.02l-.15-.06s.05.02.07.04l-.13-.1s.02.02.03.03l-.1-.13s.02.03.03.05l-.06-.15v.04l-.02-.17v.04l.02-.17s0,.03,0,.04l.06-.15s-.05.09-.08.13l.1-.13s-.05.06-.09.09l.13-.1s-.04.03-.07.04l.15-.06s-.04.01-.06.02l.17-.02h-.06l.17.02s-.06-.01-.09-.03l.15.06c-.13-.06-.26-.13-.38-.19-.11-.06-.24-.11-.34-.18l.13.1s-.04-.03-.06-.06l.1.13s-.02-.03-.03-.05l.06.15s-.02-.06-.02-.09l.02.17c0-.12,0-.25,0-.38l.02-.41c0-.33-.3-.64-.62-.62-.35.02-.61.27-.62.62h0l-.02.03Z"/>
    <path class="st0" d="M70.19,22.16l-.68,1.36,1.14.15c-.02-.07-.04-.15-.06-.22q-.01-.07,0,0v-.34c0-.07,0-.08,0,0,0-.03,0-.06.02-.08.01-.07.03-.13.05-.19.01-.04.02-.07.04-.11q-.03.06,0,0c.04-.07.07-.13.11-.2.02-.03.04-.06.06-.09t.01,0c.21-.25.26-.64,0-.88-.24-.22-.65-.26-.88,0-.47.51-.89,1.09-1.17,1.72-.13.3-.14.64.1.89.09.1.21.17.34.21.1.03.2.02.3.05-.09-.01-.1-.01-.03,0-.05-.01-.1-.04-.13-.08.03,0,.1.1.12.13.07.09.14.18.22.25.35.32.84.37,1.26.14.31-.17.57-.46.83-.69.53-.48.95-.83,1.58-1.17.29-.15.4-.58.22-.86-.19-.3-.54-.39-.86-.22-.77.4-1.42.98-2.06,1.56-.07.07-.14.13-.22.2-.01.01-.12.09-.04.04l-.1.06c-.01-.08.32.06.18,0,.04.02.08.07.03.01-.02-.03-.05-.06-.07-.08-.12-.14-.23-.27-.38-.38-.09-.06-.2-.11-.3-.13-.07-.02-.14-.02-.21-.03q-.06,0-.01,0c.12,0,.22.07.29.2l.09.32c-.07.19-.08.23-.03.11.02-.04.04-.08.06-.12.03-.06.06-.11.09-.17.08-.14.16-.28.25-.42.17-.26.29-.4.52-.66l-.88-.88c-.59.68-.82,1.62-.54,2.48.08.24.27.41.52.45.23.03.51-.08.62-.3l.68-1.36c.15-.29.09-.69-.22-.86-.28-.15-.7-.09-.86.22h0v-.03Z"/>
    <path class="st0" d="M71.35,31.26l-.02.41c0,.12,0,.25-.02.37l.02-.17s-.01.08-.03.12l.06-.15s-.02.04-.03.06l.1-.13s-.02.02-.04.04l.13-.1s-.02.01-.03.02l.15-.06h-.03l.17-.02h-.01c.06,0,.11.01.17.02h-.01c.09.05.18.1.28.16h0s.07.08.1.12h0s.04.09.06.14c0,0,0-.03-.01-.04l.02.17v-.07l-.02.17s.02-.07.03-.1l-.06.15c.03-.06.06-.11.1-.16l-.1.13c.09-.12.21-.24.33-.34l-.13.1s.02-.02.04-.02l-.15.06h.03l-.17.02h.01c-.06,0-.11,0-.17-.02h.02l-.15-.06s.01,0,.02,0l-.13-.1v.02s-.09-.13-.09-.13v.02l-.06-.15v.03l-.02-.17v.03l.02-.17v.03l.06-.15s-.01.02-.02.03l.1-.13s-.01.01-.02.02l.13-.1s-.03.02-.04.02l.15-.06s-.06.02-.09.02l.17-.02c-.32.04-.65.05-.94.22-.22.12-.35.32-.44.55,0,.02-.01.04-.02.06-.01.07-.03.15-.03.22s.01.15.02.22c0,.02,0,.05.02.07.05.16.14.29.29.37.13.08.33.11.48.06s.3-.14.37-.29.12-.32.06-.48c0-.02-.01-.05-.02-.07l.02.17v-.09l-.02.17s.01-.06.02-.09l-.06.15s.03-.05.04-.08l-.1.13s.03-.04.05-.05l-.13.1s.07-.04.1-.06l-.15.06c.12-.05.24-.07.37-.08l-.17.02c.06,0,.11,0,.17-.02.16-.02.29-.04.44-.11.12-.07.22-.17.3-.29.1-.17.11-.37.08-.56-.08-.38-.5-.63-.87-.52-.2.06-.35.2-.5.35-.11.11-.22.24-.3.37-.06.09-.1.19-.13.29-.02.07-.03.15-.03.22,0,.08,0,.16.02.25.01.07.05.14.08.2.08.14.23.25.39.3.19.05.4.02.57-.09.19-.12.34-.33.38-.56.05-.32.05-.65.07-.97,0-.15-.08-.33-.18-.44s-.29-.19-.44-.18-.33.06-.44.18-.17.27-.18.44h-.01Z"/>
    <path class="st0" d="M82.21,35.3s0,.05.01.07l-.02-.17c.01.09.01.18,0,.28l.02-.17s0,.06-.02.09c-.03.11-.03.22,0,.33.02.08.06.15.11.21.04.07.1.12.18.16.1.06.2.08.32.09.21.02.43-.09.58-.24.08-.08.15-.18.21-.29.12-.23.22-.47.21-.73,0-.33-.16-.67-.47-.84-.25-.14-.55-.11-.78.05-.08.05-.15.1-.23.16-.14.09-.24.21-.29.37-.03.08-.03.17-.01.25,0,.08.03.16.07.23.09.13.21.25.37.29s.34.03.48-.06c.05-.04.11-.07.16-.11.05-.03.09-.07.15-.09l-.15.06h.03l-.17.02h.01c-.06,0-.11,0-.17-.02h.03l-.15-.06.04.02-.13-.1.04.04-.1-.13s.04.05.05.08l-.06-.15s.02.06.03.1l-.02-.17v.14l.02-.17c-.01.07-.03.13-.06.19l.06-.15c-.04.09-.08.18-.14.26l.1-.13s-.03.04-.06.06l.13-.1s-.03.02-.04.03l.15-.06h-.04l.17-.02h-.04l.6.79c.03-.12.05-.25.05-.38s-.02-.26-.04-.38c-.02-.08-.06-.15-.11-.21-.04-.07-.1-.12-.18-.16-.07-.05-.15-.07-.23-.07-.08-.02-.17,0-.25,0-.15.05-.3.14-.37.29l-.06.15c-.03.11-.03.22,0,.33h0Z"/>
    <path class="st0" d="M91.53,33.3c-.11,0-.22.02-.32.05s-.2.07-.3.11-.18.11-.26.18-.14.16-.2.25l.1-.13s-.02.03-.04.04l.13-.1s-.02,0-.03,0l.15-.06h-.02l.17-.02h-.03l.17.02h-.02l.15.06s-.01,0-.02,0l.13.1h0s.07.08.1.12h0s.06.14.06.14v-.02c-.02-.08-.06-.15-.11-.21-.04-.07-.1-.12-.18-.16-.07-.05-.15-.07-.23-.07-.08-.02-.17,0-.25,0-.15.05-.3.14-.37.29l-.06.15c-.03.11-.03.22,0,.33,0,.03.02.06.03.09.02.05.02.06.04.08.03.05.06.1.11.13l.13.1h0s.06.03.09.04c.04.02.06.03.09.04l.17.02h0s.07,0,.1,0c.02,0,.07,0,.1,0,.03,0,.05-.02.08-.03s.05-.02.08-.03c0,0,.01,0,.02,0,.05-.03.1-.07.14-.11.05-.04.08-.1.12-.16.01,0,.02-.03.03-.04l-.1.13s.05-.06.08-.08l-.13.1s.08-.05.13-.07l-.15.06c.08-.03.16-.05.25-.06l-.17.02h.06c.09,0,.17,0,.24-.05.08-.03.14-.07.2-.13s.1-.12.13-.2c.04-.07.06-.15.05-.24,0-.16-.06-.33-.18-.44l-.13-.1c-.1-.06-.2-.08-.32-.09h0v-.03Z"/>
    <path class="st0" d="M95.95,23.39s-.02.16,0,.06c.01-.09,0,.03,0,.04-.01.07-.02.15-.04.22-.03.15-.07.29-.12.43-.02.07-.01.03,0-.01-.02.04-.03.07-.05.11-.02.03-.03.06-.05.08-.04.06-.05.07,0,0-.05.06-.1.1-.15.15-.06.06.08-.05,0,0-.04.02-.07.05-.1.07-.36.23-.62.48-.77.89-.13.36-.22.74-.33,1.11-.09.31.11.69.44.77s.67-.1.77-.44c.11-.37.21-.74.33-1.11.02-.07-.07.1.01-.01.05-.07.03-.02,0,0,.01,0,.12-.1.05-.05-.06.05.02-.01.04-.02.16-.11.32-.21.47-.34.56-.49.68-1.27.76-1.97.04-.33-.32-.64-.62-.62-.37.02-.58.28-.62.62h0l-.02.02Z"/>
    <path class="st0" d="M101.43,25.54v.02c0-.06-.01-.11-.02-.17.01.1,0,.2,0,.3l.02-.17c-.03.18-.07.37-.07.55s.04.38.07.56c.03.15.16.3.29.37.13.08.33.11.48.06s.3-.14.37-.29l.06-.15c.03-.11.03-.22,0-.33-.01-.06-.02-.12-.03-.19l.02.17c-.02-.13-.02-.26,0-.39l-.02.17c.02-.14.04-.29.06-.43s0-.28-.03-.43-.17-.3-.29-.37c-.13-.08-.33-.11-.48-.06s-.3.14-.37.29l-.06.15c-.03.11-.03.22,0,.33h0Z"/>
    <path class="st0" d="M109.16,31.2c-.18-.03-.33-.04-.51,0s-.31.13-.44.25-.21.26-.27.42c-.05.13-.06.27-.08.4v.13c0,.09.02.19.05.28.05.16.14.3.26.42.17.17.39.27.61.34.13.05.28.08.42.08s.28-.04.4-.12c.16-.11.27-.25.33-.44.05-.15.01-.35-.06-.48s-.22-.25-.37-.29c-.16-.04-.34-.03-.48.06s-.23.21-.29.37h0s.04-.09.06-.13c0,0,0,.02-.02.03l.1-.13s-.01.02-.02.02l.13-.1s-.03.02-.04.02l.15-.06s-.03,0-.05,0l.17-.02h-.06l.17.02c-.1-.02-.2-.05-.29-.09l.15.06c-.07-.03-.13-.06-.19-.11l.13.1s-.06-.05-.08-.08l.1.13s-.04-.06-.05-.09l.06.15s-.02-.07-.03-.11l.02.17v-.18l-.02.17c0-.07.02-.14.05-.21l-.06.15s.03-.06.05-.08l-.1.13s.04-.05.07-.07l-.13.1s.07-.05.11-.06l-.15.06s.07-.02.11-.03l-.17.02h.11l-.17-.02h.02c.08.03.17.03.25,0,.08,0,.16-.03.23-.07.13-.08.25-.22.29-.37.04-.16.03-.34-.06-.48-.08-.13-.22-.26-.37-.29h-.04Z"/>
    <path class="st0" d="M116.52,24.91c-.07.13-.14.28-.22.4l.1-.13s-.01.01-.02.02l.13-.1h-.01s.1-.04.15-.06h-.01c.06,0,.11-.01.17-.02h-.01c.06,0,.11.01.17.02h-.03l.15.06s-.02,0-.02-.02l.13.1s-.03-.02-.04-.04l.1.13s-.04-.06-.05-.09l.06.15c-.04-.1-.07-.21-.13-.3-.1-.14-.21-.24-.35-.34-.06-.04-.12-.08-.18-.11-.17-.08-.3-.12-.5-.13-.09,0-.17.01-.24.05-.08.03-.14.07-.2.13-.11.12-.2.28-.18.44,0,.12.01.23,0,.35,0,.16.07.33.18.44s.29.19.44.18.33-.06.44-.18.18-.27.18-.44v-.35l-.62.62h.03l-.17-.02s.08.02.11.03l-.15-.06c.09.04.18.09.26.15l-.13-.1s.05.04.07.07l-.1-.13s.04.06.05.1l-.06-.15c.03.08.06.16.1.24.03.07.09.14.14.19.21.25.59.32.88.16.17-.09.25-.24.34-.4l.13-.25c.08-.15.11-.32.06-.48-.04-.14-.15-.3-.29-.37-.15-.08-.32-.12-.48-.06-.15.05-.3.14-.37.29h0Z"/>
    <path class="st0" d="M117.75,31.29c.04.24.1.47.23.67.15.22.34.4.57.54.2.12.44.21.67.27.28.08.59.15.88.06.15-.05.29-.15.37-.29s.11-.33.06-.48c-.1-.31-.43-.54-.77-.44-.03,0-.05.01-.08.02l.17-.02h-.14l.17.02c-.22-.03-.44-.09-.65-.18l.15.06c-.11-.05-.21-.1-.31-.18l.13.1c-.07-.05-.13-.12-.19-.18l.1.13c-.05-.07-.09-.13-.12-.21l.06.15c-.05-.12-.07-.25-.09-.37-.02-.15-.17-.3-.29-.37-.13-.08-.33-.11-.48-.06s-.3.14-.37.29l-.06.15c-.03.11-.03.22,0,.33h0Z"/>
    <path class="st0" d="M126.38,18.99c-.54.2-.57.66-.57,1.17s.03,1,.07,1.5.09,1,.15,1.5c.06.52.04,1,.6,1.22.32.13.69-.14.77-.44.33-1.18.28-2.4.12-3.6l-1.16.32c.18.41.29.84.38,1.28.1.48.23.91.42,1.36s.38.89.57,1.34l.27.62c.04.1.09.21.13.31.02.04.08.26.09.21h1.21c-.26-.64-.49-1.51-1.3-1.57-.34-.03-.62.31-.62.62,0,.36.29.6.62.62h.08c-.11-.02-.21-.05-.32-.08-.06-.03-.03-.06,0,.03s.09.18.13.26c.07.15.13.29.2.44.11.26.3.46.6.46.25,0,.56-.19.6-.46.1-.61-.18-1.1-.42-1.65-.21-.49-.42-.98-.63-1.47-.41-.96-.52-2-.94-2.96-.24-.55-1.24-.29-1.16.32.14,1.09.22,2.2-.08,3.27l.77-.44-.04-.02.37.29c.04.13.04.12.02-.04,0-.08-.02-.17-.03-.25-.02-.17-.04-.33-.06-.5-.04-.33-.07-.67-.1-1s-.05-.67-.06-1c0-.17,0-.33-.01-.5v-.25q0-.17-.03.02l-.37.29.05-.02c.32-.12.53-.42.44-.77-.08-.3-.45-.56-.77-.44h.01Z"/>
    <path class="st0" d="M128.11,26.27c-.12.37-.17.76-.15,1.15.02.51.51.73.94.54.55-.25.77-.84.88-1.39h-1.21c.14.43.2.86.15,1.31,0,.04-.07.28-.05.29.18-.19.18-.21,0-.06l-.05.05c-.25.28-.24.66-.04.96.26.38.87.59,1.3.68.57.12,1.14-.09,1.32-.68l-1.21-.33c-.08.3-.15.6-.09.91.02.09.05.36.14.4-.07-.21-.03-.35.13-.41.15.02.26.13.32.33.05-.6-.92-.88-1.16-.32-.23.52-.23,1.1.11,1.58.17.24.39.42.65.53.17.07.4.11.44.28.11.47.72.59,1.04.28.21-.21.29-.43.32-.72.04-.34-.31-.62-.62-.62-.37,0-.59.29-.62.62l.05-.17,1.04.28c-.13-.56-.56-.84-1.05-1.05-.04-.01-.09-.03-.13-.05-.07-.04-.08-.05-.05-.03-.06-.05-.04-.03-.07-.1-.03-.06-.04-.18-.03-.19l-1.16-.32c-.08.83.95,1.12,1.55.74.29-.18.48-.5.47-.84,0-.17-.11-.3-.13-.46,0-.11.05-.24.07-.34.22-.78-.98-1.1-1.21-.33.03-.09.09-.15.17-.18.05-.01.05-.02,0-.03-.02-.03-.25-.08-.29-.09-.13-.04-.28-.09-.37-.2l.16.28-.03-.07v.33-.07c-.04.09-.09.18-.15.28.13-.14.3-.31.36-.54s.09-.52.11-.78c.03-.5-.05-1.02-.2-1.5-.17-.55-1.08-.64-1.21,0-.05.27-.07.54-.3.64l.94.54c0-.29.02-.55.11-.82.24-.77-.97-1.1-1.21-.33h0l.02.02Z"/>
  </g>
  <g>
    <path class="st0" d="M124.48,78.38c-.17-.03-.31-.23-.53-.27-.91-.16-2.73.09-2.87-1.16-.87.5-.91-.3-1.1-.34-.35-.08-.87.31-1.41.15-.76-.23-1.65-1.13-2.4-1.35-.18-.05-.41.1-.66-.01-.2-.09-.65-.64-.81-.85-.54-.71-1.68-2.19-2.33-2.76-.19-.17-.72-.24-.92-.57l-.71.31-.33-1.15-1.8.66c.09-.97.51-2.48-.02-3.35-.2-.33-.56-.38-.61-.45-.1-.14.05-1.52.29-1.77-.65-.08-.58-.85-.99-1.23-.43-.4-1.94-.73-1.14.16l-.41.25-.41-.25.33-.49c-.12-.55-1.04.68-1.17.8-.14.13-.46.12-.56.27-.17.24-.3,1.49-.45,1.77-.05.1-1.41,1.46-1.5,1.53-.47.34-1.46.17-1.9.4-.41.21-.26.85-.48,1-.2.14-.67.01-.99.16-.72.31-1,1.72-1.93,1.86-.35.05-2.27-2.29-2.68-2.68-1.27.06-1.57-1.28-2.22-1.88-.67-.62-1.21-.91-1.98-1.72-.81-.86-1.29-1.41-2.04-2.31-.84-1.01-1.95-1.9-3.33-1.2-.37.19-1.34,1.41-1.42,1.87-.06.34.08.73-.06,1.25-.54,2.05-3.55,4.51-4.86,6.15-.19.24-.34.81-.39.84-.48.4-1.83-.29-1.12,1.68l-.65-.17.16-.32c-1.32-.31-1.15,1.41-1.29,1.57-.25.29-.78.18-.93.39-.25.35.13,1.34-.73,1.16.25.76-.23,1.78.08,2.46.19.42.68.39.85.55.34.33.58.83,1.05,1.17.27.2.66.2.89.42.2.19.27.77.58.91.22.1.48-.12.71-.07.22.05.34.41.7.47.69.11,2.22-.17,3.11,0,.48.09.84.93,1.57.22l-.51-1.62c.44-.42,1.42-.73,1.32.24-.23.05-.89,0-.83.41.18,1.16,2.01.26,2.68.29.65.03.77.7,1.37.78,1.03.14,2.09-.51,3.06-.12.32.13.36.4.86.46.67.08.76-.17,1.2-.29.93-.26,1.02-.01,1.58-1.04.53-.97.63-2.28-.37-2.93-.34-.22-.9-.32-1.22-.5-.16-.09-.17-.4-.38-.47-.27-.09-3.24-.09-3.59-.02-.36.07-.45.38-.69.46-1.14.35-2.32-.11-3.25-.14-.35-.01-.69.2-.98.18-.49-.05-.54-.68-1.15.02-.27.05-1.37-.79-1.4-.92-.14-.65,1.05-.43,1.2-.46,1.13-.21,3.99-.71,4.83-1.47.17-.15.12-.52.24-.59.77-.49,3.97-1.05,4.99-.99.25.01.45.3.81.33.43.03.93-.28,1.4-.18-.22.47-.07,1.11-.2,1.53-.09.3-.51.35-.44.82.05.36.46.56.55.79.09.22-.08.46,0,.65,1.06,2.74,3.79,1.94,6.09,1.96,1.25.01,2.39.08,3.61.02.68-.03,1.2-.31,1.94,0l.36-.5c.52.8,1.54.05,1.81.06.14,0,.28.26.32.27.28.01-.07-1.31,1.64-1.15.79.07,1.41.82,2.02.96.43.09.7-.12,1.07-.09.76.06,4.32,1.52,5.11,1.96.58.32.36.66,1.34.65.9-.01.87-.45.93-.47.1-.04.33.2.63.06.56-.25.79-1.01.84-1.05.1-.09.5.03.71-.03,1.21-.35,2.39-.72,3.38-1.55-.33-.62-.72-.23-1.04-.3l-.03-.1ZM74.89,78.74l-.8.03-.02-.81h-.48c.21-2.03,2.01.34,1.29.79h.01ZM86.04,72.64c-.48.34-.79.43-.86.23-.16.05-.32.1-.48.15-.32.42-.84.78-1.69,1.06-1,0-1-1-2-1-2-3,2-3,3-5h.35s-.04-.07-.07-.1c-.12-.12-1.96-.56-.9-.88.57-.17.71.38,1.01.46.14.04.31,0,.46-.03.01-.12.05-.27.15-.45-.09.19-.13.33-.15.45.26-.04.48-.02.44.5.51.1,1.32-.04,1.68.17.13,0,.28,0,.47.06.11.03.19.08.27.14.16.03.33.08.52.17-.07.07-.13.15-.17.22.18.35.23.8.26,1.22.38.52.91,1.04.91,1.55-1.07.53-2.13.78-3.2,1.05v.03ZM90.2,69.07h-.98v-1.14c-.8.09-.92-.25-1.36-.61-.15-.12-.5-.09-.6-.31-.25-.53.62-.59.98-.57l.08,1,1.21.18c0,.67.11.7.69.88v.57h-.02ZM90.69,70.05h1.31c-.3,1.81-.73,1.58-1.31,0ZM104.45,66.84c.78.5.1,1.38-.22.57l-.88.17c-.03-.7.51-1.12,1.1-.74ZM101.04,77.45c.42-.4,1.22.69,1.15,1.15-.25.24-1.44-.87-1.15-1.15ZM104.98,75.14c-.42.06-.42,0-.57-.33-.47.24-2.54.82-2.94.78-.44-.05-1.21-.53-1.25-1.03.73-.42,2.29-.79,2.3-1.72.68-.14.81.74,1.2,1.09.58.53,1.49.27,1.26,1.21ZM112.19,74.68c.1.06.24.63.12.8l-1.08.49c.08-.28-.27-.6-.27-.74,0-.51.84-.79,1.23-.55ZM107.37,74.65l-.4-.43c.36-.54.51-.74.42-1.43,0-.05-.58-1.1.15-.61.38.26.35.7.65.99.16-.08.19-.4.28-.45.2-.12.55-.01.79-.04.18,1.26-1.25,1.28-1.89,1.97ZM109.49,73.99c.09-.33-.12-1.46.42-1.32l.09.65,1.06,1.16s-1.57-.49-1.57-.49ZM110.9,77.37c.46-1.47.79-.43,1.31-.19.18.08.58-.16.66.26-.97-.36-1.54,1.17-1.97-.08h0ZM119.24,78.89c-.32.28-1.21.09-1.55.68h-.28c-.34-.76-1.46-.73-1.25-1.62l.98.66-.14-.56.55-.42c.43,1.09,1.1.39,1.55.56.3.12.36.5.13.71h0Z"/>
    <path class="st0" d="M130.91,38.96c.39.35.55.98.83,1.38.21.3.91.81,1.01,1.14.18.58-.08,1.48.04,2.1.09.47.59.55.66,1,.07.42-.17.77-.17,1.14,0,.6.39,1.15.44,1.51.03.26-.15.56-.1.93.11.8.78,2,.77,2.52,0,.24-.24.4-.28.63-.18,1.21.63,1.4.74,2.37.05.48-.23.92-.16,1.34.11.77.86,2.17,1.06,3.02l-.49.08c-.19.63.5.67.67.93.1.16.32.87.43,1.17.41,1.04,1.36,3.94,1.16,5.01-.03.17-.29.34-.29.37,0,.11.36.2.44.29,1.08,1.5.75,2.08,1.05,3.64.09.49.66,1.21.74,1.56.07.28-.12.55-.06.86.1.52.46,2.6.89,2.74.25.08.58-.03.88.11.55.25.15.74.21,1.11.1.7.4,1.38.45,2.1-.91-.37-1.16.56-1.42.64-.18.06-.87-.16-.98-.31s.08-.44.02-.66c-.1-.37-1.41-2.13-1.73-1.8l.33.98h-.5c.1,1.22.86,1.47,1.64,2.22-.71.39-1.42.79-2.12.22l.15-.63-.75-.15c.15-.84-.67-1.21-.4-1.82-.64-.21-1.08.61-1.57.65-.39.04-.95-.3-1.31-.25-.19.03-.4.32-.69.39-1.51.35-1.32-.36-2.14-.75-.49-.23-1.12-.16-1.61-.53-.43-.01-.76,1.14-1.64,1.17-.3,0-.21-.31-.35-.34-.48-.11-1.02.05-1.61-.17-.35-.13-.5-.42-.83-.49-1.11-.23-3.27.34-3.85.08-.16-.07-.29-.37-.51-.49-1.06-.55-2.02-.87-2.86-1.73-.21-.21-.2-.64-.41-.91-.35-.44-1.67-1.07-1.9-1.57-.12-.26.05-.49,0-.66-.16-.52-.66-.84-.25-1.51.09-.15.37-.2.5-.36,1.5-1.87,2.2-2.78,4.93-2.22l-.07.67-.63.16-.12.49c.61.02,1.19-.33,1.15-.98l1.31.34c.22.46-.26.87-.29,1.09-.04.23.38.39.27.91-.09.4-1.26,1.42-1.61,1.69,0,.39,1.07.98,1.39,1.4.41.54-.05.74.91.55l.33.81c.63.53.71-.77,1.08-.85.16-.04.63.17.97.15.38-.02,1.05-.13,1.38-.27.62-.26.9-1,1.82-.73v-1.04l.49-.11-.16-.41-.32.07c.07-.7-.96-1.79-1.62-1.92-.35-.07-3.04.05-3.37.12-.14.03-.04.44-.52.33l-.42-.66c.77.22.63-.37.99-.57.22-.12.56-.09.77-.21.79-.46,1.35-1.55,1.53.29h.49l-.31-.6.24-.37,1.79.14.17,1.01.58.16c.28-.82-.26-.92-.38-1.19-.29-.7-.44-1.66-1.26-1.94l.08-.33c.84-.11,2.76.16,2.22,1.31l.91.15c-.07,1.12.38.72.69,1.03.33.33.96,2.26,1.65,2.7-.34.64-.43,2.49.68,2.19-.06-1.06.33-2.12.66-3.12-1.09.07-.41-.83-.51-.97s-.49-.15-.79-.78c-1.26-2.56-1.99-7.21-1.48-9.99.04-.24.31-.45.28-.64-.02-.12-.21-.27-.23-.39-.07-.65.2-1.23-.57-1.29-.12-.57.17-1.24.14-1.76s-.38-1.17-.44-1.71c-.07-.62.12-1.38-.05-2.07-.15-.61-.89-1.45-.29-2.17s.46.54,1.14.07c-.24-.48.36-1.41.34-1.54-.12-.97-.83.89-.9.9-.95-.36-.75-1.21-.92-2.03-.22-1.06-.63-2.13-.87-3.09-.18-.73-.09-1.24.03-1.89.06-.35-.07-.89.2-1.12.53-.45,1.83-.55,2.41-.02l-.02-.02ZM130.8,45.64c-.11-.43.03-1.54-.04-1.87-.04-.19-.27-.28-.35-.45-.1-.2-.09-.5-.18-.64-.35-.5-.85.02-.66.48.07.18,1.15.94.91,1.16l-.98-.33c-.13.71.73.45.4,1.32l.91.32h-.01ZM132.41,56.12c.1-.13-.17-.95-.13-1.19.07-.4.74-.79-.17-.91-.08,1.15-.67,1.82-.51,3.05.02.13.5.76.67.57l-.33-1.08c-.05-.33.38-.32.47-.44ZM133.63,58.75c-.13-.22.07-.68-.2-.88l-1.16.1c.4.58,1.16.34.83,1.3l.98.18c.19-.56-.37-.54-.46-.69h.01ZM134.03,60.64c-.19-.16-.68-.18-.85-.54-.26-.11-.38.32-.37.44.03.61,1.13.75,1.61.7.03-.02-.31-.54-.38-.6h0ZM132.61,61.41c-1.1-.05-.7,1.11-.08,1.48l.08-1.48ZM135.07,65.52c.1-.44-.34-1.82-.74-1.97l-.4.58-.83.07c0,.35.58.05.83.23.18.13.12.54.25.74.44.73.76.9,1.54,1.09.4.1.36-.5.34-.75h-.99,0ZM135.56,67.82l-.33.08c.22.32.23,1.13.38,1.35.07.11.44.17.45.29,0,.09-.5.26-.16,1.15.43,1.11.99.25.91-.09-.06-.24-.42-.52-.51-.81-.09-.31.11-.78-.11-1.2-.16-.31-.61-.35-.63-.78h0ZM133.86,71.32s-.48-.48-.6-.55l.19,1.29.63.02c.05-.32-.06-.51-.22-.77h0ZM117.61,71.65c-.39-.35-.74-.13-.52.43.11.28,1.06,1.2,1.31,1.16.59-.48-.02-.5-.24-.78-.18-.22-.37-.65-.54-.81h-.01ZM137.35,73.87l.16-1.34-.86-.76-.6.72.66.25c.13.13-.61.87,0,1.24.15.09.59-.04.63-.12h0ZM126.68,76.01c.27-.23.06-1.14-.56-.97s0,1.46.56.97Z"/>
    <path class="st0" d="M37.2,55.12c.12.18.81.31.92.65s-.13.66-.11.96c.03.66.25,1.39.13,2.1-.09.35-2.03.87-2.43.9-.49.03-1.08-.59-1.42-.96-.16-.18-.11-.53-.43-.72-.12-.07-1.61-.57-1.74-.57-.53-.02-.75.43-1.29.49-1.25.16-3.3-.21-4.44,0-.35.06-.45.39-.7.46-.5.15-1.22-.05-1.76.04s-1.51.62-2.17.64c-.39,0-.62-.24-.97-.31-.5-.09-.93.08-1.44-.31-.66.45-1.35.6-1.84,1.29l-.41-.82c-.15.49.49,1.28.49,1.56,0,.33-.49.57-.49.65,0,.06.58.54.74.9.11.25.18.64.23.92.31,1.92.4,3.85.68,5.73.04.25.32.46.32.66,0,.22-.3.4-.32.65-.03.34.33.89.32,1.33,0,.38-.28.61-.26.91.09,1.09,1.13,1.66,1.18,2.55.01.2.02,1.67,0,1.76-.04.27-.45.56-.4.99.06.61.74.7.96,1,.17.24.11.58.24.75.14.2.54.15.66.32.04.06.24,1.24.25,1.41.03.86-.42.7-.84,1.14-.13.14-.11.43-.2.53-.26.3-1.1-.17-1.21.88l-.89-.18.16.49-1.21.15-.85-.81c-.14-.47.09-.73-.02-1.27-.15-.72-1.25-1.91-1.35-2.46-.07-.38.17-.72.15-1.1-.11-1.43-.43-3.1-.66-4.52l1.22.64c.32-.07,1-1.76.1-1.63l-.15.59-.98.05c-.44-2.34-.98-4.65-1-7.05.85-.24,1.82,1.11,2.14-.16-.67.16-.43-.51-.9-.82l-.08.82-1.57-.65c.02-.41.18-.81.09-1.23-.07-.35-.42-.5-.44-.66-.02-.21.29-.57.28-.81,0-.07-.8-.46-.34-1.24l-.49.16-.33-2.14c-1.14.26-3.54-.03-2.79,1.81-.32.1-.38-.3-.65-.24-.23.05-1.26.76-1.59.96-.82.5-1.87.87-2.88,1.27-.66.63-1.84.6-2.69.97-.31.02-1.18-.55-1.3-.83-.14-.32-.05-.68-.13-1.02-.04-.17-.24-.32-.28-.55-.16-.89.38-1.95,1.27-2.18.28-.07.56.16.79-.02.26-.2.08-.52.19-.78.38-.87,1.54-.53,2.23-.74.42-.13.36-.78,1.23-.92,1.02-.16,1.31.67,1.51-.62.54-.17,1.36-.1,1.86-.28.36-.13.82-.88,1.28-.55.22.16.11.85.65.75l-.16-.82c.47-.06.92.24,1.39.17.52-.09.52-.65,1.66-.5.56.07.8.56,1.39.5v-.66c.76.32.94,0,1.44-.12,1.26-.3,2.47-.26,3.78-.49,1.87-.32,3.81-.04,5.74-.34.41-.06,1.88-.38,1.69.13l.74-.82.5.98c.4-.24.59-.3,1.06-.17l-.16-.98c.31.02.58.19.9.18.77-.02,1.81-.29,2.48-.34.83-.06,1.68.11,2.49-.13.26,0,.88.64,1.01.88.16.3.12.67.23.84v.02ZM35.84,58.62c.06-.26-.15-1.63-.41-1.64-.54.43.04,1.09-.25,1.64h.66ZM8.24,58.94c-.62.39-1.28-.39-1.64.49l1.32.42.3-.17.03-.75h-.01ZM13.99,59.27c-.38-.02-.29-.05-.33.24-.06.49.04,1.06,0,1.56.65,0,.67-.75.82-1.23l-.38-.08-.12-.5h.01ZM15.3,65.35c-.24-.48.29-2.06-.57-1.81-.49.14.04,1.17-.09,1.54,0,0,.66.27.66.27ZM15.3,67.65c-.19,0-.62-.11-.49.24.37,1,1.28,1.85.65,3.12l.33.08c.06-.33.33-.54.35-.9,0-.11-.15-1.55-.17-1.63-.04-.15-.94-.11-.67-.92h0ZM16.29,74.72c-.17.17.44,1.47.58,1.47.46-.4.18-1.11.24-1.64l-.82.17ZM18.42,78.66c-.77.37-1.82-1.9-1.93-.46-.02.29-.08,1.16-.02,1.34.13.43.61.24.64.02.02-.2-.24-.35-.3-.53-.26-.9.81-.95.62.12.43.06.82-.07.98-.49h.01ZM18.81,81.07c-.11-.08-.58-.94-.87-.19-.23.59.94.62,1.23.9l.24-.4c-.13-.23-.44-.18-.6-.3h0Z"/>
    <path class="st0" d="M161.97,60.63c.09.08.07.35.22.52.38.42,1.01.66,1,1.49l-.05.21c-.42.1-.65.58-1,.73-.85.36-2.4.21-3.28.62-.19.09-.18.34-.41.45-.53.26-1.81.48-2.64.81-1.09.43-1.11-.05-2.01-.45-.08.5.12.77.49,1.07-.73.59-1.73.45-2.22,1.39l-.51-.8-.72.23c.1.71.76.75.94.95,1.59,1.84,1.4,1.85,3.64,3.01.83.43,2.68,1.12,3.31,1.79.27.28.3.63.49.83.36.36,1.1.37,1.28,1.19.11.49-.21,1.14.36,1.28-.98.3-.28,1.58-.57,2.21-.02.05-.58.76-.62.79-.16.09-.42-.02-.57.07-.07.04-1.01,1.28-1.12,1.28-.27,0-.48-.25-.93-.14-.39.1-1.17.73-1.6.87-.53.18-1.18.14-1.68.29-.59.18-1.24.72-1.87.93-.91.3-2.35.09-2.52,1.09l-1.54-.1-.72,1.01c-.68-.42-2.59.14-2.94-.16-.27-1.07-.92-2.09-.88-3.19.61-.26.23-1.01.33-1.59.37.01.73-.01,1.08-.15,1.03-.4,1.94-.9,3.12-.98.28-.02.56.18.8.15.34-.03.46-.41.65-.43,1.2-.17,3.02-.54,4.41-.92.77-.21.96-1.21,1.93-.95-.1-1.31-.9-.87-1.63-1.07-.51-.15-.82-.61-1.17-.81-.22-.12-.56-.06-.81-.18-.3-.14-.89-.89-1.33-1.13s-.94-.11-1.46-.68c-.31-.34-1.54-2.55-.67-2.54v-.16c-.46,0-.78.17-.9-.33l-.24.33c-.17-.36-.88-.97-1.31-.99.42-1.11-.15-.87-.3-1.25-.05-.11-.41-1.48-.36-1.53l.82.16.02-.64c.23-.13.6-.1.8-.27s1.02-1.48,1.32-1.63c.24-.12,1.52-.35,1.62-.44l.02-.46c1.22.65,1.28-.45,1.77-.64.63-.25.98-.25,1.69-.58,1.55-.7,3.34-.64,5.17-.9.48-.07,1.29.03,1.61-.02.18-.03.14-.77.93-.41.31.14.19.52.25.58.15.15.41.1.52.2h-.01ZM148.87,65.52h-1.31c.09,1.19,1.31,1.39,1.31,0ZM152.65,71.92c.09-.86-.87-.63-1.15-1.41l-.64.11c.04.61.05,1.41.57,1.79.32.06.56-.98,1.23-.49h-.01ZM158.57,74.39c-.56.09-.74-.44-1.07-.66-.67-.45-.31,1.01.19,1.13.3-.06,1,.01.87-.47h.01ZM154.5,74.51c.48.49,1.02,0,.71-.63l-.91-.15c0,.24.03.6.21.78h-.01Z"/>
    <path class="st0" d="M29.76,64.03s.38.03.57.17c1.33.95.59,1.44.99,2.31.16.35,1.28,1.43,1.47,1.82.48.96-.1,1.54-.04,1.85.06.33,1.03,2.04,1.23,2.54.13.3.07.78.21,1.06.12.24.59.27.75.77.13.4,0,1.37.1,1.46.05.05.38.03.56.18.16.13.19.41.35.51.6.37,1.81.18,1.37-.67,1.91.49,1.16-.96,1.65-1.56.15-.19,1.4-1.11,1.64-1.17.39-.09.62.1.98.1l-.1-.83c.69-.02,1.26-.79,1.7-.94.74-.25,1.98-.43,2.71-.16.33.12.56.56,1.06.58.35.01.69-.4,1.25-.29.12.02.15.29.31.38.2.12.72.28.75.31.09.11.02.43.12.61.95,1.54,2.53,3.54,3.93,4.62.63.48.59.59,1.03.98.53.47,1.35.14,1.7.72.18.3.1.57.2.79.21.49.68.45.33,1.23-.1.23-.04.25-.37.21v-.66h-.49c.92,2.91-1.94,2.81-3.95,2.39l-.19-1.21c-.35-.35-.94-.28-1.28-.45-.66-.36-.7-1.13-.92-1.54-.16-.31-.82-.88-.88-1.11-.09-.37,1.12-2.06-.02-2.27l-.74,1.07c-.3-.19-.6-.38-.83-.65-.47-.55-.14-1.18-1.14-.5-.43-.25-.12-.87-.33-1.16-.09-.13-.39-.1-.53-.21-.2-.15-.08-.46-.63-.46-.72,0-1,.78-1.16.81l-1.06-.14.31,1.79c-.81.03-.77.76-1.12,1.1-.21.21-.53.18-.62.28-.1.1-.11.53-.29.78-.77,1.05-1.81,1.83-2.67,2.67-.11.11-.07.47-.27.63-.05.04-.97.58-1.03.61-.08.04-1.38.35-1.47.36-1.93.09-.42-3.18-.72-3.44-.9.26-.85-.89-1.17-1.54-.44-.92-1.21-1.54-1.21-2.57h-.58c.08-1.08-1.2-1.29-.66-2.45l-.75-.15c-.11-.4-.04-.75-.16-1.16s-.52-.49-.63-.67c-.88-1.48-1.67-3.76-2.39-5.38-.56-1.26-.4-1.56-.18-2.77.04-.24-.14-.56-.07-.72.42-1.01,3.04-.37,3.44.66.06.16-.12.44-.07.49h0ZM28.6,65.53l-1.47-.5-.16.76.25.38.72-.15c-.06.36,0,1.23.41,1.31.72.15.14-.8.12-.92-.02-.24.23-.71.11-.87h.02ZM29.43,68.15l-.99-.33.16,1.31c.2.25.92-.88.82-.98h.01ZM47.34,75.87c-.03.42-.04.81.32,1.08l.66-.34c.08-.34-.87-.86-.98-.74ZM50.15,78.32c-.12-.12.18-.99-.43-.97-.71.71.1,1.25.66,1.64l.25-.57-.48-.09h0ZM35.67,79.97h-.49c.12.57-.45,1.23.08,1.64.6.13.38-1.35.41-1.64Z"/>
    <path class="st0" d="M63.91,67.51l.03.96.33-.66c.08-.08,1.3.28,1.53.36.54.19,1.05.98,1.19-.04,1.04,0,2.08.03,3.12.02.84,0,1.77-.41,2.49.53.34.44.7,1.42,1.25,1.88.23.19.66-.18.43.94-.14.69-.73.6-1.31.58l.16.82-.96-.15c-1.75,2.6-1.92-.64-2.1-.68l-4.06-.13c-1,1.62-2.82-.22-2.4,2.52.1.67.82,3.41,1.08,4,.11.25.45.25.52.47.1.31.06,1.09-.01,1.43-.06.28-1.16,1.4-1.45,1.5-.59.21-.9-.03-1.47-.07l.32.55-.57.94c-1.15-.06-2.4-.59-2.46-1.9,0-.22.14-1.78.07-1.87-.59-.79-.48-.75-.85-1.71-.5-1.3-.88-2.7-1.69-3.9-.63-.93-1.65-2.41-2.19-3.56-.35-.75-.42-1.37-.35-2.2.63.1,1.33,0,1.31.81l-.82.42c.5.09.47.68.51.71.12.11.74-.02.97.03l-.15.87c.18.56,1.16.41,1.12-.11s-1.07-.97-1.33-1.64-.39-1.57-.62-2.25c.15-.16,1.32.65,1.61.77.39.16,1.05.03,1.43.54-.11-1.6,1.31-2.1,2.68-1.87.98.16,1.63,1.13,2.63,1.08h0ZM61.14,69.46c-.8-.11-1.48-.75-2.3-.49l.1.5c.52.32.99.02,1.45.03.3,0,.55.56.76-.04h0ZM65.58,68.97c-.4-.18-1.62.53-1.31.98,1.57-.02.83,1.07,1.72,1.65l.41-.41-.8-.77s-.02-1.45-.02-1.45ZM69.3,70.49c-.11-.12-1.04-.75-1.1-.29-.02.16.82.88.9.9.35.09.45-.31.19-.61h0ZM61.43,75.17c.11-.2-.11-1.41-.61-1.28.31.91-.09,1.72-.16,2.63h.82c.15-.45-.29-.76-.33-1.07s.26-.21.29-.28h0ZM58.84,75.05l-.33.08c-.15.69.16,1,.86.88,1.07-.19.56-1.2-.44-.62l-.09-.34ZM62.13,81.94c.19-.17-.59-.72-.65-1.07-.08-.42-.03-.86.32-1.15-.25-.33-.96-.58-1.31-.33l-.16.5.82.33c.02.8-.75.34-.66.9.69-.39,1.23,1.19,1.64.82Z"/>
    <path class="st0" d="M6.82,60.02c.26,0,.51-.07.75-.15.2-.07.4-.14.61-.17l-.17.02c.1,0,.2,0,.3,0l-.17-.02s.1.02.15.03v-1.21c-.29.1-.58.23-.83.41-.14.09-.24.21-.29.37-.04.15-.02.35.06.48s.21.25.37.29.34.03.48-.06c.15-.11.32-.2.49-.27l-.15.06c.06-.03.13-.05.19-.07.25-.09.47-.32.46-.6s-.19-.52-.46-.6c-.35-.1-.73-.06-1.07.04-.26.08-.51.18-.78.22l.17-.02s-.08,0-.12,0c-.17,0-.32.06-.44.18-.11.11-.19.29-.18.44.01.32.28.64.62.62h.01Z"/>
    <path class="st0" d="M13.47,59.49s.05.1.07.15l-.06-.15c.14.33.24.68.28,1.04l-.02-.17c0,.07.03.14.02.2l.09-.32v.02c.07-.07.14-.15.22-.22h-.01s.1-.03.15-.05c-.02,0-.04,0-.06,0l.17-.02h-.06l.17.02s-.04,0-.06-.02l.15.06s-.05-.03-.07-.04l.13.1s-.04-.04-.06-.06l.1.13s-.04-.07-.06-.1l.06.15c-.02-.06-.04-.13-.05-.2l.02.17s0-.07-.01-.1c-.02-.16-.06-.33-.18-.44-.1-.09-.22-.15-.36-.17-.3-.04-.6.15-.69.45s-.08.64.03.93c.06.16.14.29.29.37.13.08.33.11.48.06s.3-.14.37-.29.12-.33.06-.48c-.03-.07-.05-.15-.06-.23l.02.17v-.24l-.02.17s.02-.09.03-.13l-1.23-.17c.02.16.03.32.08.47.09.23.22.42.43.55.2.13.46.17.68.11.32-.09.55-.38.51-.72-.03-.28-.07-.56-.15-.83s-.18-.54-.3-.8c-.06-.13-.24-.25-.37-.29-.15-.04-.35-.02-.48.06s-.25.21-.29.37c-.04.17-.01.32.06.48h-.02Z"/>
    <path class="st0" d="M14.13,63.79c.11.46.25.9.41,1.34.06.16.14.29.29.37.13.08.33.11.48.06s.3-.14.37-.29.12-.33.06-.48c-.16-.44-.3-.89-.41-1.34-.04-.15-.16-.3-.29-.37s-.33-.11-.48-.06c-.33.11-.52.43-.44.77h0Z"/>
    <path class="st0" d="M16.27,67.12v-.88c0-.33-.02-.67-.12-.98-.05-.15-.15-.29-.29-.37s-.33-.11-.48-.06c-.32.1-.54.43-.44.77.03.1.05.2.07.31l-.02-.17c.06.45.03.92.03,1.38,0,.33.29.64.62.62s.62-.27.62-.62h.01Z"/>
    <path class="st0" d="M15.21,67.2c-.34.24-.52.6-.52,1.02,0,.35.13.67.25,1,.12.3.22.62.28.94.02.08.03.16.05.24,0,.04.01.08.02.12q0-.06,0,.02c.02.16.03.33.03.49,0,.33.28.64.62.62s.64-.27.62-.62c-.02-.61-.11-1.22-.3-1.79-.09-.27-.21-.52-.29-.78-.02-.06-.03-.11-.04-.17.03.14-.03-.08,0-.1v.07-.09c-.04.08-.04.09,0,.03-.02.04-.06.07-.1.1.27-.19.42-.55.22-.86-.17-.26-.57-.43-.86-.22h0l.02-.02Z"/>
    <path class="st0" d="M15.85,71.97c0,.06.01.12.01.18v.08q0,.07,0-.01c0,.09-.05.21-.07.3-.06.22-.12.44-.18.65-.12.44-.25.87-.37,1.31-.09.31.11.69.44.77s.67-.1.77-.44c.13-.45.26-.91.38-1.36s.33-.98.27-1.48c-.02-.17-.06-.31-.18-.44-.11-.11-.29-.19-.44-.18-.3.01-.67.28-.62.62h0Z"/>
    <path class="st0" d="M15.75,74.9s.04.08.06.12l-.06-.15c.03.08.05.16.08.23.04.13.1.25.16.37.1.2.23.37.37.54s.41.22.61.16c.11-.03.2-.08.28-.16s.13-.17.16-.28c.06-.15.08-.31.1-.48s0-.32-.03-.48c-.02-.08-.06-.15-.11-.21-.04-.07-.1-.12-.18-.16-.13-.08-.33-.11-.48-.06s-.3.14-.37.29l-.06.15c-.03.11-.03.22,0,.33v.02c0-.06-.01-.11-.02-.17.01.11.01.22,0,.34l.02-.17c-.01.09-.04.18-.07.27l1.04-.28s-.05-.06-.07-.09l.1.13c-.1-.13-.18-.27-.25-.42l.06.15c-.09-.21-.13-.44-.25-.63-.09-.14-.21-.24-.37-.29-.15-.04-.35-.02-.48.06s-.25.21-.29.37-.03.34.06.48h0v.02Z"/>
    <path class="st0" d="M15.96,77.44c.05.66.09,1.33.13,1.99.02.31.22.57.54.61s.56-.16.69-.45l.22-.54.1-.25.06-.14s-.02.05-.05.08l-.28.16h-.12s.07.02.11.03c-.1-.04.03.03.05.05-.09-.07.03.05.04.06q-.04-.05,0,.02s-.02-.08-.02-.12l.09-.32s.06-.06,0,0c-.03.03-.05.05-.07.08-.07.08-.13.17-.17.26-.09.2-.14.41-.13.63,0,.38.14.76.33,1.1.36.64.97,1.12,1.67,1.33.31.09.7-.11.77-.44s-.1-.67-.44-.77c-.02,0-.2-.07-.14-.05s-.11-.06-.13-.07c-.05-.03-.1-.06-.15-.09-.02-.01-.15-.11-.06-.04-.09-.07-.17-.15-.25-.24-.03-.03-.05-.06-.08-.09.03.04.04.05.01.01-.03-.05-.06-.1-.09-.15-.03-.06-.06-.12-.1-.18-.06-.12.02.07-.02-.06-.02-.05-.04-.11-.05-.16-.01-.05-.02-.16-.01-.05,0-.02.01-.21,0-.14,0,.05,0,.04,0-.02-.03.06-.03.07-.01.03s.01-.03-.02.02c.02-.03.05-.05.08-.07.06-.06.11-.13.15-.21.36-.68-.44-1.45-1.07-1.57-.25-.05-.5-.03-.71.13-.19.14-.25.31-.34.52-.13.31-.26.62-.39.93l1.23.17c-.04-.66-.08-1.33-.13-1.99-.02-.33-.27-.64-.62-.62-.32.01-.65.28-.62.62h0Z"/>
    <path class="st0" d="M26.86,64.92c0,.27.02.54.09.8s.16.53.35.71c.26.25.67.32.98.11.13-.08.24-.2.32-.34.02-.03.14-.29.06-.14l.02-.04c.06-.09.03-.06-.1.09l-.92-.37c.03.09.05.19.08.28.01.05.02.11.03.16,0,.03.01.1,0,.03.03.21.04.41.05.62.02.44.04.88.12,1.31.09.47.26.98.77,1.11.61.15,1.04-.37,1.17-.9.08-.32-.1-.69-.44-.77s-.69.1-.77.44c0,.04-.02.07-.03.11q-.02.07,0,0l-.03.05c.04-.07.1-.12.18-.14.19-.02.33.03.43.15l.02.06s-.07-.23-.07-.25c-.02-.06-.03-.13-.04-.19,0-.01-.03-.2-.02-.09-.02-.15-.03-.3-.04-.46-.04-.62-.04-1.25-.23-1.85-.12-.39-.56-.58-.92-.37-.16.09-.29.23-.37.4-.02.04-.03.08-.05.12-.04.09-.04.1,0,.02.16-.2.4-.19.72.05-.02-.05-.03-.05-.01-.01.02.07-.05-.13-.05-.16-.02-.06-.03-.12-.05-.19-.03-.13,0,.04-.01-.09v-.25c.01-.33-.29-.64-.62-.62-.35.02-.61.27-.62.62h0Z"/>
    <path class="st0" d="M34.87,79.96c.04.28.03.57,0,.86l.02-.17c-.03.2-.07.39-.13.58-.1.31.12.7.44.77.34.08.66-.1.77-.44.16-.51.22-1.07.15-1.6,0-.09,0-.17-.05-.24-.03-.08-.07-.14-.13-.2-.11-.11-.29-.19-.44-.18s-.33.06-.44.18c-.1.11-.2.28-.18.44h-.01Z"/>
    <path class="st0" d="M34.85,57.06c0,.51.06,1.02.17,1.51.03.15.16.3.29.37s.33.11.48.06.3-.14.37-.29c.08-.15.1-.31.06-.48s-.07-.34-.09-.51l.02.17c-.04-.28-.06-.55-.06-.83,0-.16-.07-.33-.18-.44s-.29-.19-.44-.18-.33.06-.44.18-.18.27-.18.44h0Z"/>
    <path class="st0" d="M15.16,65.49c-.27.05-.46.29-.54.53-.04.12-.03.25-.05.37l.02-.17s-.01.06-.02.08l.06-.15s-.01.02-.02.03l.1-.13s-.02.02-.03.03l.13-.1s-.01,0-.02.01l.15-.06h-.02l.17-.02h-.03l.17.02h-.03l.15.06s-.03-.01-.04-.02l.13.1s-.04-.04-.06-.06l.1.13c-.09-.13-.17-.28-.24-.42s-.16-.3-.22-.45l.06.15c-.02-.06-.05-.12-.07-.17-.05-.16-.14-.29-.29-.37-.13-.08-.33-.11-.48-.06s-.3.14-.37.29-.12.32-.06.48c.14.39.33.75.54,1.11.09.15.19.28.34.37.23.14.52.14.75.01.18-.1.3-.28.36-.48.03-.11.03-.23.04-.34l-.02.17s.01-.06.02-.08l-.06.15s.02-.03.03-.05l-.1.13s.02-.02.03-.03l-.13.1s.01,0,.02-.01l-.15.06h.03c.15-.03.3-.16.37-.29.08-.13.11-.33.06-.48s-.14-.3-.29-.37l-.15-.06c-.11-.03-.22-.03-.33,0h-.01Z"/>
    <path class="st0" d="M48.38,76.27c0-.07-.03-.14-.05-.21-.04-.12-.09-.23-.14-.34-.04-.07-.09-.13-.16-.18-.06-.06-.13-.09-.21-.11-.08-.03-.17-.03-.25-.01-.08,0-.16.03-.23.07l-.13.1c-.08.08-.13.17-.16.28l-.02.17c0,.11.03.22.09.32.02.03.03.06.05.1l-.06-.15c.04.1.07.2.09.3.02.08.06.15.11.21.04.07.1.12.18.16.07.05.15.07.23.07.08.02.17.01.25-.01l.15-.06c.09-.06.17-.13.22-.22l.06-.15c.03-.11.03-.22,0-.33h-.02Z"/>
    <path class="st0" d="M49.57,77.04c-.15.59-.06,1.25.27,1.77l.54-.94h-.04l.17.02s-.09-.02-.13-.04l.15.06s-.07-.04-.1-.06l.13.1s-.06-.05-.08-.08l.1.13s-.04-.06-.06-.1l.06.15s-.03-.07-.03-.11l.02.17v-.14l-.02.17s.02-.08.03-.11l-.06.15s.02-.04.03-.05c.08-.14.11-.32.06-.48-.04-.14-.15-.3-.29-.37-.15-.08-.32-.12-.48-.06s-.29.14-.37.29c-.19.34-.2.76,0,1.09.09.16.23.29.38.39.17.1.35.14.54.16.47.03.79-.55.54-.94-.05-.08-.09-.16-.13-.24l.06.15c-.06-.14-.1-.28-.12-.43l.02.17c-.02-.14-.02-.28,0-.42l-.02.17c0-.06.02-.13.04-.19.04-.16.02-.34-.06-.48-.08-.13-.22-.25-.37-.29-.16-.04-.34-.03-.48.06s-.25.21-.29.37h0v-.04Z"/>
    <path class="st0" d="M58.55,73.93c-.12.49-.45,1.23-.29,1.74.14.46.69.68,1.14.67.46,0,.92-.22,1.23-.56.1-.11.61-1.22.51-1.22l-.54-.31c.45.63.25,1.59-.02,2.24h1.21c-.14-.35-.23-.68-.26-1.06-.06-.82-1.16-.79-1.25,0s-.04,1.53.16,2.28.73,1.5.6,2.26l.77-.44-.19-.27c-.02-.7-1.03-.86-1.23-.17-.33,1.13-.35,2.83,1.17,3.05.49.07.86-.26.77-.77-.37-1.97-.55-4.12-1.46-5.94-.99-1.97-2.38-3.79-3.57-5.64-.27-.42-1.03-.41-1.14.15s-.1,1.06.09,1.59l1.14-.48c-.39-.63-.78-1.26-1.17-1.89l-.98.76c.83.94,1.77.98,2.93.8.99-.16,2.12-.2,2.88-.94.35-.34.17-.91-.28-1.04-.64-.19-1.26-.21-1.91-.1s-.53,1.03,0,1.21c1.07.36,2.24.25,3.35.24,1.26,0,2.51,0,3.77-.01l-.44-1.07c-.35.32-.7.65-1.05.97s-.16.92.28,1.04l1.39.38-.15-1.14-.39.11c-.69.08-.86.98-.17,1.23,1.46.51,2.56-1.38,4.04-.78l-.37-.29.07.11-.06-.48.19-.19h-.35c-.24-.02-.47-.05-.7-.1-.79-.16-1.12,1.04-.33,1.21.61.13,1.51.34,2.07-.05.47-.33.46-1.02-.02-1.34s-1.41-.18-1.94-.09c-.39.07-.75.21-1.09.41-.37.21-.72.56-1.17.4l-.17,1.23c.38-.04.68-.12,1.02-.28.5-.24.34-1.01-.15-1.14l-1.39-.38.28,1.04c.35-.32.7-.65,1.05-.97.4-.37.08-1.07-.44-1.07-1.17,0-2.33,0-3.5.01-1.07,0-2.26.15-3.29-.2v1.21c.43-.07.83-.03,1.25.1l-.28-1.04c-.45.43-1.26.44-1.85.54-.85.14-1.56.32-2.19-.39-.47-.53-1.35.16-.98.76.39.63.78,1.26,1.17,1.89.36.58,1.4.21,1.14-.48-.12-.32-.17-.59-.09-.93l-1.14.15c1.15,1.79,2.44,3.54,3.45,5.41.95,1.75,1.1,3.94,1.46,5.87l.77-.77c-.75-.11-.43-1.04-.29-1.51l-1.23-.17c.02.73.41,1.24,1.1,1.48.3.1.72-.12.77-.44.14-.81-.08-1.47-.37-2.23-.33-.87-.45-1.71-.34-2.64h-1.25c.04.49.12.94.3,1.4.23.6.97.58,1.21,0,.25-.62.36-1.27.29-1.93-.05-.49-.17-1.3-.69-1.53-.45-.19-.95.08-1.2.46-.12.18-.49,1.6-.86,1.24l.18.44c0-.4.18-.84.27-1.24.19-.78-1.02-1.12-1.21-.33h0l-.04-.04Z"/>
    <path class="st0" d="M75.08,77.06c-.29-.05-.61-.1-.9,0-.17.06-.34.15-.47.28s-.22.31-.27.49c-.01.04-.02.09-.03.13-.02.1-.04.2-.03.31,0,.13.02.18.07.29.02.04.03.08.05.12.08.12.17.21.3.29.04.02.08.04.12.05.04.02.08.04.13.05.02,0,.04,0,.06.01.07.01.15.03.22.03.19,0,.35-.05.53-.13.13-.06.25-.14.34-.25.06-.07.12-.15.17-.23.02-.04.05-.08.07-.12l-.1.13s.03-.04.06-.06l-.13.1s.03-.02.04-.03l-.15.06h.01c.08-.02.15-.06.21-.12.07-.04.12-.1.16-.18.08-.13.11-.33.06-.48s-.14-.3-.29-.37-.33-.12-.48-.06-.22.09-.34.2c-.06.06-.11.13-.16.2-.04.06-.07.13-.12.19l.1-.13-.09.09.13-.1s-.08.05-.13.07l.15-.06s-.09.03-.14.04l.17-.02h-.13l.17.02s-.08-.01-.11-.03l.15.06s-.05-.03-.07-.04l.13.1s-.03-.02-.04-.04l.1.13s-.02-.03-.03-.05l.06.15s0-.03-.01-.05l.02.17v-.09l-.02.17c.01-.1.03-.19.07-.28l-.06.15s.03-.07.06-.1l-.1.13.07-.07-.13.1s.07-.04.1-.06l-.15.06c.05-.02.1-.04.16-.04l-.17.02c.09-.01.18,0,.28,0l-.17-.02c.06,0,.11.02.17.03.08.03.17.03.25.01.08,0,.16-.03.23-.07.13-.08.25-.22.29-.37.04-.16.03-.34-.06-.48-.08-.13-.22-.26-.37-.29h-.01Z"/>
    <path class="st0" d="M83.08,80.9c-.04-.3.07-.5.31-.59-.07.01-.05.01.06,0-.04,0-.1,0-.14.01-.11,0-.22.02-.33.02-.22.01-.43.02-.65.03h-.31s-.16.01-.18,0h.08s-.06,0-.09-.01c.08.04.1.04.04.02l-.04-.02s-.09-.05-.14-.07c-.17-.08-.31-.12-.5-.13-.33-.01-.64.3-.62.62.02.35.27.61.62.62-.03,0-.13-.03-.05,0-.05-.02-.11-.05-.02,0,.05.02.09.05.14.08.2.1.37.14.58.16.27.02.55,0,.82,0s.54-.02.81-.05c.23-.02.45-.07.62-.24.19-.19.27-.48.2-.74-.09-.32-.45-.54-.77-.44s-.53.43-.44.77h0v-.04Z"/>
    <path class="st0" d="M100.57,77.73c0,.08.01.16.03.24,0,.03.01.06.02.09.06.17.12.27.23.4.06.08.15.14.23.2.07.05.14.08.21.11.18.08.37.11.57.12s.38-.03.57-.06c.08-.02.15-.06.21-.11.07-.04.12-.1.16-.18.08-.13.11-.33.06-.48s-.14-.3-.29-.37l-.15-.06c-.11-.03-.22-.03-.33,0-.05,0-.09.01-.14.02l.17-.02c-.13.02-.27.03-.4,0l.17.02c-.06,0-.13-.03-.19-.05l.15.06s-.1-.05-.14-.08l.13.1s-.07-.06-.1-.1l.1.13s-.04-.07-.06-.1l.06.15s-.03-.08-.03-.12l.02.17v-.07c0-.16-.07-.33-.18-.44s-.29-.19-.44-.18-.33.06-.44.18-.18.27-.18.44h-.02Z"/>
    <path class="st0" d="M107.6,71.41c-.49-.06-.94.28-1.14.7-.24.49-.12,1.02.12,1.49s.59.93,1.17.74c.54-.18.6-.79.96-1.13l-.28.16c-.07.03-.24-.09-.26-.07-.01.02,0,.08-.02.12-.05.12-.17.22-.28.3-.15.11-.32.18-.49.24-.1.03-.2.06-.3.07-.05,0-.09,0-.14.01-.12,0-.14,0-.04,0l.37.29-.04-.05.09.32c-.05.13-.04.14.02.03.04-.05.07-.1.11-.16.06-.08.13-.16.2-.24.15-.17.3-.32.47-.47.15-.13.31-.25.47-.36.12-.08.39-.28.49-.27l-.32-.09s0-.03-.02-.03c.02.04.04.09.06.14.04.08.08.17.12.25.11.21.25.4.4.59.28.35.63.65,1.02.88l.63-1.08c-.79-.4-1.6-.64-2.48-.74-.57-.07-.78.71-.44,1.07.54.58,1.33.64,2.07.71.36.03.81.04,1.11.11.04,0,.11,0,.1.03-.05.06-.12-.23-.07-.22.04.01-.25.12-.24.12-.43.15-.68.49-.64.95.04.43.18.9.3,1.32.12.4.35.75.76.88.18.06.37.07.56.05.13,0,.3-.05.42-.03v-1.21c-.47.14-1.03.34-1.48.05-.28-.19-.69-.06-.86.22-.18.31-.06.67.22.86.74.49,1.64.32,2.44.08.55-.17.63-1.08,0-1.21-.23-.04-.43-.05-.67-.03-.07,0-.18,0-.25.01.02,0,.1.11.08.06-.08-.19-.11-.41-.15-.61-.03-.11-.05-.22-.08-.33-.02-.07-.04-.15-.05-.22,0,.08-.03.15-.07.22l-.28.16c.53-.21,1.05-.41,1.18-1.04s-.24-1.15-.82-1.32c-.51-.15-1.1-.14-1.63-.19-.37-.04-.81-.05-1.08-.34l-.44,1.07c.64.08,1.27.28,1.85.57.71.36,1.32-.66.63-1.08-.33-.2-.62-.46-.83-.78-.25-.38-.35-.91-.82-1.08-.51-.18-1,.14-1.4.41s-.77.58-1.09.93c-.3.33-.75.79-.76,1.26,0,.32.19.63.5.72.24.07.5.04.74,0,.96-.14,2.07-.82,2.11-1.89.02-.61-.4-1.24-1.05-1.24-.36,0-.6.24-.79.52-.13.21-.25.51-.45.66l.28-.16h.03c.11.02.21.05.32.08.08.05.1.13.04,0-.03-.06-.07-.11-.1-.16-.05-.09-.1-.19-.12-.29v-.1s.11-.08.01-.04c-.07.03-.08.02.02.03.34.04.62-.32.62-.62,0-.37-.29-.58-.62-.62h0v.02Z"/>
    <path class="st0" d="M104,66.69c-.23.15-.44.33-.63.53h.88l-.02-.02.1.13s-.01-.02-.02-.03l.06.15v-.04l.02.17v-.04l-.02.17s0-.03.01-.05l-.06.15s.02-.03.03-.05l-.1.13.06-.06-.13.1c.1-.08.22-.13.34-.18l-.15.06c.17-.07.34-.12.51-.15.08-.02.15-.06.21-.11.07-.04.12-.1.16-.18.05-.07.07-.15.07-.23.02-.08.01-.17-.01-.25-.05-.15-.14-.3-.29-.37l-.15-.06c-.11-.03-.22-.03-.33,0-.29.05-.58.16-.84.29-.18.1-.35.22-.46.4-.07.12-.12.28-.11.43s.03.23.09.36c0,.01.01.02.02.03.03.05.07.1.11.14.11.11.28.19.44.18s.33-.06.44-.18.23-.23.35-.33l-.13.1s.1-.07.15-.11c.14-.09.24-.21.29-.37.03-.08.03-.17.01-.25,0-.08-.03-.16-.07-.23-.09-.13-.21-.25-.37-.29s-.34-.03-.48.06h.02Z"/>
    <path class="st0" d="M116.7,77.96c-.4-.01-.74.26-.87.63-.11.33,0,.71.24.96.4.41,1.11.45,1.63.27.58-.2.94-.77.95-1.38,0-.37-.17-.68-.47-.89-.22-.16-.51-.21-.77-.23-.6-.04-1.19.2-1.64.59-.36.32-.16.92.28,1.04.28.08.57.06.86.08.27.01.53.03.79.06.12.01.24.03.37.04.04,0,.08.01.12.02-.05,0-.06,0-.01,0,.07.01.14.02.21.03.26.04.53.08.79.12.32.05.69-.08.77-.44.07-.3-.09-.71-.44-.77-.56-.09-1.12-.18-1.68-.24-.26-.03-.53-.05-.79-.07-.12,0-.24,0-.37-.01h-.17q-.07,0,0,0s-.07-.02-.11-.03l.28,1.04s.12-.09.05-.04.04-.03.06-.03c.03-.02.07-.04.11-.06s.11-.08,0,0c.06-.04.17-.06.23-.07.01,0,.09-.03.1-.02-.08,0-.09.01-.04,0h.17s.16,0,.06,0c-.09,0,.03,0,.05.01.02,0,.14.04.05,0-.1-.03.04,0,.04.03l-.06-.04s-.05-.06-.06-.09c-.01-.04-.02-.04,0-.01.01.05,0,.03,0-.05.01.11.02-.07,0,0,0,.03-.03.19-.06.21.03-.07.03-.08.01-.04,0,.01-.01.03-.02.04-.02.04-.01.03.03-.03l-.03.03c.12-.08.02-.02,0,0-.05.04.1-.02,0,0-.04,0-.08.02-.12.03-.08.02.15,0,0,0h-.26c.05,0,.08.01,0,0-.06-.02-.07-.02-.02,0t0,0s.07.07.03.01c.05.06.07.1.08.17.02.18-.14.37-.34.37.33,0,.64-.29.62-.62s-.27-.61-.62-.62h-.03Z"/>
    <path class="st0" d="M116.65,71.67c.08.28.16.58.34.82.2.28.46.48.75.68.47.31.97.59,1.49.84.15.07.31.11.48.06.14-.04.3-.15.37-.29.15-.28.09-.71-.22-.86-.48-.23-.94-.48-1.38-.77-.1-.06-.2-.13-.29-.2-.06-.04.11.09.02.02-.02-.02-.04-.03-.06-.05-.02-.02-.11-.13-.13-.13.02,0,.08.12.03.04-.02-.03-.03-.05-.05-.08,0-.01-.03-.08-.04-.09.01,0,.05.13.02.04-.04-.12-.08-.25-.11-.37-.08-.32-.45-.54-.77-.44s-.53.43-.44.77h0Z"/>
    <path class="st0" d="M124.71,75.83c.69.26,1.43.39,2.17.4.33,0,.64-.29.62-.62s-.27-.62-.62-.62c-.25,0-.5-.02-.74-.05l.17.02c-.43-.06-.85-.17-1.26-.32-.14-.05-.35-.01-.48.06s-.25.22-.29.37c-.04.16-.03.34.06.48s.21.23.37.29h0Z"/>
    <path class="st0" d="M134.6,70.55c-.43-.06-.87.19-1.13.52s-.35.76-.3,1.17l1.23-.17c-.05-.14-.08-.28-.11-.43,0-.04-.02-.08-.02-.12,0-.07,0-.08,0-.04,0,.04,0,.03,0-.04v-.13c0-.06,0-.07,0-.02-.02.14-.12.25-.29.31.03,0,.06-.02.09-.02q-.09.01-.02,0c.1-.01.21-.02.31-.03.12,0,.24-.01.36,0h.1c-.07-.01-.09-.01-.04,0,.06.01.11.02.17.04.06.02.13.05.03,0,.06.03.11.06.17.1-.09-.06-.02,0,.02.03q.05.05,0,0s.03.04.05.07c.16.24.3.49.51.7.19.19.41.34.6.52.03.02.13.17.06.05.02.04.06.14.03.04,0,.04.02.07.03.11,0-.07,0-.07,0,0v.17c0,.31-.02.61-.04.92l1.23-.17c.02.09,0,.21-.07.27.22-.24.26-.65,0-.88-.24-.22-.65-.26-.88,0-.25.27-.32.58-.26.94.06.3.4.49.69.45.32-.04.52-.3.54-.61.05-.58.15-1.28-.14-1.8-.13-.24-.34-.42-.55-.6-.09-.08-.19-.15-.27-.24-.05-.05-.1-.1-.15-.15,0,0-.06-.08-.02-.03s-.03-.04-.03-.05c-.15-.23-.27-.47-.48-.65-.22-.2-.48-.34-.77-.41-.48-.12-1.07-.11-1.55.01-.92.23-.68,1.35-.46,2.02.1.3.37.49.69.45.28-.04.58-.31.54-.61,0-.06,0-.11,0-.17,0-.02.02-.19,0-.06,0-.05.03-.09.03-.14t0,.02s.03-.05.04-.07c.02-.06-.06.05.02-.02.05-.04.05-.05.02-.02-.04.03-.03.02.02,0l-.05.02s.07-.02.1-.03c-.11.02-.02.01.04.02.33.04.64-.32.62-.62-.02-.37-.28-.58-.62-.63h-.07Z"/>
    <path class="st0" d="M137.16,76.55v.03s-.03-.1-.05-.15c.03.07.04.13.05.2l-.02-.17c.02.15,0,.31,0,.46,0,.2.02.42.08.62.06.22.16.46.34.62.21.19.5.25.78.22.39-.04.75-.18,1.06-.41.15-.11.32-.23.45-.37.07-.08.14-.17.19-.26.1-.21.11-.39.07-.61s-.24-.38-.44-.44c-.37-.11-.72-.01-1.09.04l.17-.02c-.1.01-.2.02-.31,0l.17.02c-.05,0-.1-.02-.16-.04l.15.06s-.08-.04-.12-.07c-.08-.06-.22-.09-.32-.09-.14,0-.27.05-.38.13-.09.07-.15.15-.19.25-.05.12-.08.29-.03.41.07.18.13.28.25.43.05.06.11.12.17.17.12.11.25.2.35.33l-.1-.13c.1.13.17.27.28.38.15.15.35.25.56.28.1.02.21.04.32.03.2-.01.39-.08.53-.22.23-.23.31-.63.12-.91-.09-.14-.21-.24-.37-.29-.15-.04-.35-.02-.48.06-.27.17-.42.57-.22.86v.02s-.03-.1-.05-.15v.02c0-.06,0-.11-.02-.17v.04l.02-.17v.02s.04-.1.06-.15c0,.01,0,.03-.02.04l.1-.13s-.02.02-.03.03l.13-.1h-.02s.1-.03.15-.05c-.02,0-.04.01-.06.02l.17-.02h-.12l.17.02c-.07-.01-.14-.02-.2-.05l.15.06s-.05-.03-.07-.04l.13.1s-.05-.05-.07-.07l.1.13c-.13-.17-.24-.36-.4-.5-.12-.11-.26-.21-.36-.34l.1.13s-.05-.08-.08-.13l.06.15v-.02c-.32.24-.62.47-.93.71.42.32.96.17,1.43.11l-.17.02c.09-.01.17-.01.26,0l-.17-.02s.08.02.13.03l-.44-.44v.03c0-.06,0-.11-.02-.17v.05l.02-.17s0,.03,0,.05l.06-.15s-.03.06-.05.09l.1-.13c-.08.1-.18.18-.28.26l.13-.1c-.15.11-.3.21-.47.28l.15-.06c-.1.04-.2.07-.31.09l.17-.02c-.09.01-.18.01-.26,0l.17.02s-.06-.01-.09-.02l.15.06h-.03s.08.05.13.08c0,0-.03-.02-.04-.04l.1.13s-.06-.1-.08-.15l.06.15c-.05-.11-.08-.23-.1-.35l.02.17c-.02-.17,0-.35,0-.52,0-.27-.05-.51-.16-.75-.06-.13-.24-.25-.37-.29-.15-.04-.35-.02-.48.06s-.25.21-.29.37c-.04.17,0,.32.06.48h0l-.04.03Z"/>
    <path class="st0" d="M139.16,77.22l-.81.18.61,1.04h0s-.08.06-.13.09c.03-.02.07-.04.11-.06l-.15.06c.06-.03.13-.04.19-.05l-.17.02c.13-.02.27-.01.4-.02.11,0,.23-.02.34-.04s.22-.07.33-.12l-.63-1.08c-.07.04-.14.08-.22.11l.15-.06c-.16.07-.32.11-.49.14l.17-.02c-.13.02-.25.02-.38.01-.15-.01-.34.08-.44.18s-.19.29-.18.44.06.33.18.44l.13.1c.1.06.2.08.32.09.24.02.5-.01.73-.07s.47-.15.68-.28c.14-.08.25-.22.29-.37s.02-.35-.06-.48-.21-.25-.37-.29l-.17-.02c-.11,0-.22.03-.32.09,0,0-.02,0-.03.01l.15-.06c-.06.03-.13.04-.2.05l.17-.02c-.16.02-.31.01-.47.02-.12.01-.25.02-.36.06-.08.03-.16.06-.23.1-.08.04-.15.1-.22.16l-.1.13c-.05.07-.07.15-.07.23-.02.13,0,.28.07.4.06.09.13.17.22.22.14.09.33.1.48.06l.81-.18c.15-.03.3-.16.37-.29s.11-.33.06-.48-.14-.3-.29-.37c-.15-.08-.31-.1-.48-.06h0Z"/>
    <path class="st0" d="M135.27,68.49l.02-.02-.44.18h.02c-.11-.03-.21-.06-.32-.09-.07-.03-.11-.16-.17-.19l-.02-.03s.02.06.03.08c.02.06.03.11.05.17.04.14.07.28.1.43.05.26.1.52.13.78,0,.02.02.14,0,.06,0-.07,0,.03,0,.03,0,.07.02.14.03.2.02.14.03.27.05.41.04.34.07.66.28.93.26.34.73.46,1.12.27.33-.16.45-.5.49-.84.03-.25,0-.52,0-.77v-.83c0-.34.04-.7-.05-1.03-.1-.37-.39-.7-.77-.79s-.79.18-.79.6c0,.33.14.6.27.89.02.05.05.1.07.16,0,.02.08.19.06.14s.05.12.06.14c.02.05.04.11.06.16.18.46.32.94.43,1.42.07.32.46.54.77.44.33-.11.51-.43.44-.77-.11-.47-.24-.92-.41-1.37-.09-.25-.19-.49-.3-.73-.05-.1-.09-.21-.14-.31-.02-.03-.03-.07-.05-.1.02.06.03.06,0,.02,0-.03-.02-.05-.02-.08q0,.08,0,0l-.79.6c.07.02.05.01-.03-.02-.07-.06-.08-.07-.03-.02-.05-.07-.06-.08-.02-.02-.03-.09-.04-.1,0-.02q.02.07,0,0v2.26c.02-.1.02-.12,0-.05-.02.06,0,.05.02-.04.03-.05.08-.09.13-.12.17-.1.38-.06.49.1q-.03-.06,0,.02s0-.05-.02-.07c-.04-.17,0,.09,0-.06,0-.08-.02-.15-.03-.23-.02-.16-.04-.31-.06-.46-.04-.33-.09-.65-.15-.98-.05-.29-.12-.57-.2-.85-.07-.23-.17-.44-.38-.57-.29-.17-.59-.1-.83.1s-.23.67,0,.88c.27.25.61.22.88,0h.02Z"/>
    <path class="st0" d="M134.98,66.23v-.11c.05-.15.11-.29.17-.44.39,0,.46-.05.2-.15l-.13-.11c-.16-.15-.26-.34-.33-.53-.15-.37-.27-.91-.22-1.31l-.31.54.06-.04-.76-.1c.16.15.27.5.37.7.07.13.13.26.2.38.05.19.1.17.15-.08h.63c-.85-.38-1.13-1.01-1.37-1.87-.12-.44-.29-.82-.51-1.21-.05-.09-.29-.4-.23-.5.11-.17.35,0,.47.04.54.24,1.48.72,1.72-.19.09-.34-.11-.61-.34-.81-.34-.3-.53-.54-.63-.99-.19-.78-.1-1.64-.46-2.38-.31-.63-1.16-1-1.65-.33-.86,1.16.68,3.17,1.98,3.04.21-.02.45-.1.54-.31.22-.5.06-.84-.34-1.18-.51-.43-.87-.79-.98-1.47-.08-.48-.31-1.01-.89-.96-.22.02-.4.1-.54.27-.12.14-.14.49-.24.58l.44-.18h-.1c.21.2.42.41.62.62.13-.96.31-1.9.54-2.84.19-.78-1.02-1.12-1.21-.33-.25,1.05-.44,2.1-.58,3.17-.05.35.32.61.62.62.28.02.51-.1.68-.31.07-.09.14-.22.17-.33l.03-.13c.06-.22,0-.19-.18.08l-.61-.16c-.06-.05,0,0,.03.14.03.17.04.33.09.49.07.25.19.5.34.72.14.2.29.38.46.54.11.11.23.21.35.31.04.03.26.26.2.11l.06-.48-.04.1.54-.31c-.53.06-.7-.51-.91-.85l-.02-.16-.48.22s.08.3.09.36c.06.29.08.58.12.87.06.49.13.96.33,1.41.1.21.22.41.37.59.07.09.51.54.4.29l.06-.48-.05.08.37-.29c.2-.04-.11-.12-.19-.16-.14-.07-.27-.14-.41-.19-.24-.1-.49-.15-.76-.14-.53.02-1.01.32-1.19.82-.21.58.04,1.14.33,1.63.33.56.42,1.19.65,1.78.29.73,1.44,2.26,2.37,1.71.47-.28.54-.83.36-1.31-.18-.5-.51-1.26-.9-1.62-.18-.17-.54-.27-.76-.1-.55.41-.36,1.1-.25,1.7s.39,1.24.86,1.67c.35.32.96.68,1.44.4.56-.33.43-1.03.03-1.41-.58-.55-1.47.33-.88.88h.01Z"/>
    <path class="st0" d="M129.21,41.26c-.09,1.31,0,2.73.44,3.98.21.6.87.96,1.4.46.42-.4.41-1.22.44-1.75,0-.27.02-.54-.14-.78-.2-.32-.65-.45-.98-.25-.56.33-.43,1.04-.36,1.58.08.64.17,1.25.08,1.9s-.24,1.32-.16,2l1.23-.17c-.14-.64-.28-1.27-.21-1.93.07-.62.24-1.22.16-1.84-.04-.33-.26-.62-.62-.62-.31,0-.67.29-.62.62.08.67-.12,1.31-.17,1.97-.05.72.11,1.44.26,2.14s1.31.54,1.23-.17c-.1-.82.16-1.61.2-2.42.02-.4-.03-.8-.08-1.2-.02-.18-.05-.36-.07-.54,0-.09-.02-.17-.02-.26v-.19c0-.12-.02-.09-.07.11l-.44.18h.07c-.11-.03-.21-.06-.32-.09l.06.03-.22-.22c-.03-.15-.04-.14-.03.02v.13c0,.15-.02.3-.04.45,0,.11-.03.23-.05.34,0,.05-.02.1-.03.14q.06-.08,0-.02l.28-.16-.06.02h.33c.07.07.15.15.22.22-.13-.22-.17-.55-.22-.8-.07-.31-.13-.63-.16-.95-.07-.64-.08-1.28-.03-1.93.05-.8-1.2-.8-1.25,0h-.04Z"/>
    <path class="st0" d="M121.31,69.23c-.06.15.07.04.2,0s.27-.05.4-.07c.35-.06.7-.12,1.04-.18.64-.11,1.28-.22,1.93-.26,1.18-.07,2.46.07,3.41.84.36.3.9.2,1.04-.28.24-.76-.08-1.51-.71-1.96-.28-.2-.69-.05-.86.22-.19.31-.05.66.22.86.18.13.19.36.13.55l1.04-.28c-1.3-1.06-2.96-1.33-4.59-1.19-.86.08-1.71.23-2.56.38-.78.14-1.59.19-1.92,1.01-.13.31.14.69.44.77.36.1.64-.12.77-.44h0l.02.03Z"/>
    <path class="st0" d="M127.54,65.55c-1.55-.44-3.15-.09-4.67.32s-2.9.93-4.16,1.79c-.66.45-.04,1.53.63,1.08,1.13-.77,2.4-1.26,3.72-1.62s2.77-.75,4.15-.36c.78.22,1.11-.99.33-1.21h0Z"/>
    <path class="st0" d="M119.55,68.26c-.05.14.24-.03.33-.06.14-.05.29-.1.43-.15.33-.11.67-.23,1-.34.63-.21,1.23-.32,1.89-.33,1.43-.04,2.85-.18,4.26-.44.79-.15.46-1.35-.33-1.21-.85.16-1.7.27-2.56.33-.76.06-1.52.03-2.27.12s-1.47.36-2.18.61c-.67.23-1.53.37-1.77,1.13s.96,1.1,1.21.33h-.01Z"/>
    <path class="st0" d="M126.91,65.22c-.41-.14-.78.05-1.14.23-.15.07-.29.15-.44.21-.07.03-.15.07-.22.1s-.08.03-.02,0c-.03.01-.06.02-.09.04-.58.24-1.18.43-1.78.58-.32.08-.54.45-.44.77.11.33.43.52.77.44.57-.14,1.13-.31,1.67-.53.3-.12.59-.24.88-.38.13-.06.26-.13.39-.19.03-.01.05-.03.08-.04q.07-.03.01,0t0-.01c-.07-.02-.08-.02,0,0,.31.1.7-.12.77-.44.08-.34-.1-.66-.44-.77h0Z"/>
    <path class="st0" d="M121.55,68.58c1.02-.12,2.01-.48,3.03-.56s2.05.15,3.05.39c.41.1.77-.19.79-.6.04-.81-.74-1.37-1.5-1.21-.33.07-.52.46-.44.77.09.34.44.51.77.44-.1.02-.08-.12-.08,0l.79-.6c-1.06-.26-2.16-.52-3.27-.45s-2.08.44-3.14.57c-.34.04-.62.26-.62.62,0,.31.29.67.62.62h0Z"/>
    <path class="st0" d="M126.39,65.2c-.36-.02-.74.03-1.08.13-.06.02-.12.04-.19.05-.04.01-.09.02-.13.03-.09.03.1,0,0,0-.21.02-.42.04-.62.09-.3.07-.49.39-.45.69.04.31.3.53.61.54.2,0,.37-.05.55-.13q.06-.03-.01,0s.05-.02.07-.02c.06-.02.12-.02.18-.04.12-.02.25-.04.37-.06.05,0,.11-.02.16-.03.02,0,.21-.04.13-.02s.12-.01.14-.01h1.34c.33,0,.64-.29.62-.62s-.27-.62-.62-.62c-.51,0-1.03-.04-1.53.02-.28.03-.55.09-.83.13-.12.02-.24.04-.36.08-.08.03-.16.07-.24.1.07-.03.08-.03.01,0,.09,0,.1,0,.02,0l.17,1.23s.07-.02.11-.02c.06-.01.05-.01,0,0,.08-.02.16-.02.24-.03.19-.02.36-.05.54-.11.14-.04.27-.08.42-.1-.06,0-.07,0,0,0h.39c.33.02.64-.3.62-.62-.02-.35-.27-.61-.62-.62h0v-.04Z"/>
    <path class="st0" d="M148.73,65.17c-.11,0-.21.01-.32.03-.06,0-.11.02-.16.04-.2.08-.38.17-.53.33s-.25.33-.32.53c-.11.28-.1.63.13.85.08.08.18.14.29.17.12.03.15.02.26.01s.14-.02.24-.08c.05-.03.1-.07.14-.11.07-.07.14-.15.18-.24s.09-.18.11-.28.03-.21.04-.31v-.15c0-.13-.03-.24-.08-.36-.06-.15-.17-.28-.31-.37-.1-.06-.17-.08-.28-.09-.13-.02-.18-.01-.32.01-.25.04-.49.24-.61.45-.16.29-.15.65,0,.94.08.14.22.25.37.29s.35.02.48-.06.25-.21.29-.37.02-.33-.06-.48c0-.01-.02-.03-.02-.04l.06.15s-.02-.05-.02-.08l.02.17v-.08l-.02.17s0-.06.03-.09l-.06.15s.02-.04.04-.06l-.1.13s.03-.04.05-.05l-.13.1s.05-.03.08-.04l-.15.06s.06-.02.08-.02l-.17.02h.06l-.17-.02h.03l-.15-.06s.02.01.03.02l-.13-.1s0,.01.02.02l-.1-.13s.02.03.02.04l-.06-.15s.02.05.02.07l-.02-.17c0,.09,0,.18,0,.27l.02-.17c0,.06-.02.12-.04.17l.06-.15s-.03.07-.06.1l.1-.13s-.03.03-.04.04l.13-.1h0s.1-.03.15-.06h0c.06,0,.11-.01.17-.02h0c.06,0,.11.02.17.02h0c.09.05.18.1.28.16h0c.05.08.11.17.16.27h0s0,.1.02.15v-.06l-.02.17c0-.06.03-.12.05-.18l-.06.15c.03-.06.06-.11.09-.16l-.1.13c.04-.05.08-.1.13-.13l-.13.1s.1-.07.15-.09l-.15.06c.07-.03.13-.05.2-.06l-.17.02h.15c.15.01.34-.08.44-.18s.19-.29.18-.44-.06-.33-.18-.44l-.13-.1c-.1-.06-.2-.08-.32-.09h0Z"/>
    <path class="st0" d="M150.28,70.71c.09.33.18.65.32.96.16.36.45.65.83.77.11.04.23.04.34.05h.19c.16-.02.28-.04.43-.12.14-.07.25-.18.33-.31.11-.16.16-.39.14-.58-.02-.18-.04-.27-.12-.43-.05-.1-.12-.19-.2-.28-.18-.21-.43-.41-.72-.41-.25,0-.49.14-.62.36-.11.2-.12.43-.06.64.05.15.15.29.29.37s.33.11.48.06.3-.14.37-.29.11-.32.06-.48c0-.02,0-.05-.02-.07l.02.17v-.05l-.02.17v-.03l-.06.15v-.02s-.06.08-.09.13c0,0,0-.02.02-.02l-.13.1h0s-.1.03-.15.05h.02c-.06,0-.11.01-.17.02h.02c-.06,0-.11-.02-.17-.02h.02s-.1-.04-.15-.06c.02,0,.03.02.05.03l-.13-.1c.08.07.16.14.23.23l-.1-.13s.06.08.08.13l-.06-.15s.02.07.03.11l-.02-.17v.11l.02-.17s0,.06-.02.09l.06-.15s-.03.05-.04.08l.1-.13s-.02.03-.04.04l.13-.1s-.04.03-.07.04l.15-.06s-.07.02-.11.03l.17-.02h-.25l.17.02c-.05,0-.11-.02-.16-.04l.15.06s-.09-.05-.14-.08l.13.1s-.09-.08-.13-.13l.1.13c-.06-.08-.11-.17-.15-.27l.06.15c-.11-.26-.17-.53-.25-.8-.04-.15-.15-.29-.29-.37s-.33-.11-.48-.06-.3.14-.37.29-.11.32-.06.48h0l.03-.02Z"/>
    <path class="st0" d="M153.81,74.02c.49.35,1.05.91,1.7.87.33-.02.64-.27.62-.62s-.27-.62-.62-.62c-.15,0-.2-.01-.36-.06l.15,1.14c.13-.07.26-.14.39-.21.07-.04.22-.11.25-.12.27-.11.46-.16.71-.15.11,0,.16.01.3.05.1.03.24.08.3.1.12.05.24.12.36.19,0,0,.17.1.16.1-.04.07-.11-.37-.1-.21l.46-.6c-.09.02-.21.03-.35.02.08,0-.13-.03-.12-.02-.07-.02-.14-.04-.21-.07-.31-.11-.7.13-.77.44-.08.35.11.65.44.77.43.16.9.17,1.35.07.26-.05.47-.34.46-.6-.02-.49-.34-.78-.74-1-.36-.2-.74-.37-1.15-.43-.87-.14-1.62.2-2.37.61-.49.27-.34.98.15,1.14.22.07.46.11.69.11v-1.25c-.15,0,0,.03-.07,0t0,0l-.06-.04c-.1-.07-.2-.14-.3-.21l-.62-.45c-.27-.2-.7-.05-.86.22-.18.32-.05.66.22.86h0v-.03Z"/>
    <path class="st1" d="M86.54,67.01l1.81,1.25.79,1.26s1.53,2.45,1.72,2.49,1.85-.92,1.88-1.06-.33-1.76-.4-1.88-2.21-2.78-2.25-2.79-2.51-1.43-2.74-1.48-.8,2.21-.8,2.21h0Z"/>
  </g>
</svg>